<svg xmlns="http://www.w3.org/2000/svg" width="418.333" height="293.737" viewBox="0 0 418.333 293.737">
    <defs>
        <style>
            .cls-1{fill:#d9e1f8}.cls-2{fill:#416bed}.cls-3{fill:#2e4ed1}.cls-4{fill:#192da9}.cls-5{fill:#333d57}.cls-6{fill:#ffa397}.cls-7{fill:#fff}.cls-8{fill:#f98a99}.cls-9{fill:#ea619c}.cls-10{fill:#0622bd}.cls-11{fill:#061c42}.cls-12{fill:#56556e}.cls-13{opacity:.5}
        </style>
    </defs>
    <g id="About_Illustration" data-name="About Illustration" transform="translate(-22.416 -103.06)">
        <g id="Group_615" data-name="Group 615" transform="translate(39.922 109.852)">
            <path id="Path_2826" d="M203.671 160.265c-13.908-50.455-76.579-66.707-112.5-29q-.774.814-1.547 1.656c-51.5 55.975-27.164 193.912 80.3 228.876s219.24-28.883 225.519-85.953-43.3-75-120.238-59.042c-43.474 9.011-62.875-25.129-71.534-56.537z" class="cls-1" data-name="Path 2826" transform="translate(-43.847 -110.566)"/>
            <path id="Path_2827" d="M315.746 174.864c-14.378 2.344-18.36 15.075-7.257 24.115 3.674 2.986 8.913 5.465 16.378 6.705 28.44 4.714 43.533-7.863 32.132-24.178-7.04-10.071-26.999-8.967-41.253-6.642z" class="cls-1" data-name="Path 2827" transform="translate(-66.531 -116.534)"/>
            <path id="Path_2828" d="M68.463 288c-7.058-12.74-20.4-12.189-25.155 1.312-1.574 4.461-2.135 10.234-.778 17.681 5.167 28.358 22.106 38.312 33.607 22.079 7.102-10.023-.68-28.437-7.674-41.072z" class="cls-1" data-name="Path 2828" transform="translate(-41.763 -126.572)"/>
            <path id="Path_2829" d="M441.51 298.8c-1.321 6.931 4.4 11.845 10.885 9.175a13.77 13.77 0 0 0 6.234-5.583c7.329-11.4 3.62-21.183-6.587-20.178-6.297.614-9.22 9.708-10.532 16.586z" class="cls-1" data-name="Path 2829" transform="translate(-79.775 -126.889)"/>
            <path id="Path_2830" d="M399.63 217.463c6.913 1.439 11.917-4.2 9.356-10.732a13.736 13.736 0 0 0-5.474-6.325c-11.275-7.519-21.12-3.981-20.287 6.244.507 6.307 9.555 9.384 16.405 10.813z" class="cls-1" data-name="Path 2830" transform="translate(-74.244 -118.73)"/>
            <path id="Path_2831" d="M214.677 135.223c5.474 4.461 12.514 1.755 13.247-5.221a13.7 13.7 0 0 0-1.945-8.135c-6.551-11.872-16.921-13.247-20.884-3.791-2.462 5.836 4.153 12.724 9.582 17.147z" class="cls-1" data-name="Path 2831" transform="translate(-57.251 -110.689)"/>
        </g>
        <g id="Group_626" data-name="Group 626" transform="translate(22.416 212.82)">
            <g id="Group_617" data-name="Group 617" transform="translate(341.264 133.613)">
                <path id="Path_2832" d="M452.042 408.984a7.267 7.267 0 0 0 6.506-2.018 5.956 5.956 0 0 0 1.81-3.891v-.054c-.027-9.673 11.854-9.031 15.663-20.857s-11.256-12.822-19.871-5.52c-6.189 5.248-13.618-2.081-22.622 4.036-7.818 5.312-3.466 18.4-16.279 14.306-4.09-1.312-7.755-.045-10.849 2.271a18.315 18.315 0 0 0-6.841 10.487l1.023.724c25.273 15.5 36.657-1.955 51.46.516z" class="cls-2" data-name="Path 2832" transform="translate(-399.56 -372.021)"/>
                <g id="Group_616" data-name="Group 616" transform="translate(23.87 13.164)">
                    <path id="Path_2833" d="M429.505 409.852l33.516-21.509a.963.963 0 0 0-1.041-1.62l-36.04 23.138h3.565z" class="cls-3" data-name="Path 2833" transform="translate(-425.94 -386.569)"/>
                </g>
            </g>
            <g id="Group_619" data-name="Group 619" transform="translate(351.869)">
                <g id="Group_618" data-name="Group 618" transform="translate(13.861 8.221)">
                    <path id="Path_2834" d="M427.758 331.283c-1.412-21.083-1.647-43.2-.081-57.857 2.054-19.156 6.687-32.485 13.781-39.624a1.209 1.209 0 0 1 1.719 1.7c-12.406 12.487-16.867 46-12.931 97.01z" class="cls-4" data-name="Path 2834" transform="translate(-426.598 -233.445)"/>
                </g>
                <path id="Path_2835" d="M430.4 257.061s-10.1-.018-9.383-17.781c-.001.009 15.454 4.42 9.383 17.781z" class="cls-3" data-name="Path 2835" transform="translate(-412.203 -225.779)"/>
                <path id="Path_2836" d="M430.45 267.942s-.543-10.089 17.229-10.352c-.001 0-3.548 15.672-17.229 10.352z" class="cls-3" data-name="Path 2836" transform="translate(-413.104 -227.521)"/>
                <path id="Path_2837" d="M438.949 239.869s-3.882-9.329 12.786-15.509c0 0 1.891 15.962-12.786 15.509z" class="cls-3" data-name="Path 2837" transform="translate(-413.875 -224.36)"/>
                <path id="Path_2838" d="M426.38 287.863s-9.51 3.4-14.84-13.555c0-.008 16.043-1.086 14.84 13.555z" class="cls-3" data-name="Path 2838" transform="translate(-411.305 -229.11)"/>
                <path id="Path_2839" d="M428.54 298.335s-2.28-9.845 15.175-13.175c-.001-.009-.779 16.052-15.175 13.175z" class="cls-3" data-name="Path 2839" transform="translate(-412.913 -230.144)"/>
                <path id="Path_2840" d="M426.373 312.681s-9.447 3.583-15.093-13.274c0-.001 16.007-1.376 15.093 13.274z" class="cls-3" data-name="Path 2840" transform="translate(-411.28 -231.496)"/>
            </g>
            <g id="Group_621" data-name="Group 621" transform="translate(43.298 64.231)">
                <path id="Path_2841" d="M100.773 384.171l-2.751-.109-1.457-.054-4.135-.163S54.208 318.957 78.151 297.8c7.375-6.515 20.26-1.113 17.41 28.829-2.643 27.745 5.212 57.542 5.212 57.542z" class="cls-3" data-name="Path 2841" transform="translate(-70.266 -295.344)"/>
                <g id="Group_620" data-name="Group 620" transform="translate(12.509 19.143)">
                    <path id="Path_2842" d="M99.337 386.075l-1.457-.054c-6.669-15.717-10.044-32.611-11.709-44.465a206.849 206.849 0 0 1-2.081-24.4.657.657 0 0 1 .651-.661.67.67 0 0 1 .67.652 203.026 203.026 0 0 0 2.072 24.241c1.674 11.912 5.077 28.942 11.854 44.687z" class="cls-4" data-name="Path 2842" transform="translate(-84.09 -316.5)"/>
                </g>
            </g>
            <g id="Group_623" data-name="Group 623" transform="translate(0 55.741)">
                <path id="Path_2843" d="M103.812 396.272l-3.737 1.384-1.982.733-5.619 2.081s-87.22-65.4-67.023-107.018c6.225-12.795 26.449-12.759 39.325 28.829 11.935 38.557 39.036 73.991 39.036 73.991z" class="cls-2" data-name="Path 2843" transform="translate(-22.416 -285.962)"/>
                <g id="Group_622" data-name="Group 622" transform="translate(18.802 26.777)">
                    <path id="Path_2844" d="M102.052 400.481l-1.982.733c-17.67-17.292-31.589-37.977-40.429-52.889a296.127 296.127 0 0 1-16.369-31.444.944.944 0 0 1 .507-1.249.957.957 0 0 1 1.258.507 295.507 295.507 0 0 0 16.269 31.245c8.886 14.975 22.92 35.832 40.746 53.097z" class="cls-3" data-name="Path 2844" transform="translate(-43.195 -315.554)"/>
                </g>
            </g>
            <g id="Group_625" data-name="Group 625" transform="translate(331.696 68.99)">
                <path id="Path_2845" d="M436.839 401.366a24.332 24.332 0 0 0-.552-4.542c-3.14-14.351 5.393-17.066 16.64-21.6s12.587-18 4.615-29.191 6.343-20.187 1.077-37.036-23.572-5.637-27.58 9.89c-2.877 11.166-17.509 8.75-22.929 23.228-4.705 12.569 11.066 24.178-7.148 29.942-5.818 1.837-9.04 6.307-10.723 11.528a26.115 26.115 0 0 0 .651 17.772h45.949z" class="cls-3" data-name="Path 2845" transform="translate(-388.986 -300.604)"/>
                <g id="Group_624" data-name="Group 624" transform="translate(22.607 24.799)">
                    <path id="Path_2846" d="M416.929 403.973l30.005-74.081a1.37 1.37 0 0 0-2.543-1.022l-30.421 75.112h2.959z" class="cls-4" data-name="Path 2846" transform="translate(-413.97 -328.011)"/>
                </g>
            </g>
        </g>
        <g id="Group_649" data-name="Group 649" transform="translate(52.329 141.463)">
            <path id="Path_2847" d="M138.093 162.638s.633-13.338-7.483-15.9c-12.632-3.99-16.152 2.561-18.1 6.9-2.5 5.547-1.43 16.432 6.1 17.482 11.258 1.562 18.79-4.754 19.483-8.482z" class="cls-5" data-name="Path 2847" transform="translate(-60.785 -145.501)"/>
            <path id="Path_2848" d="M146.081 208.335a13.87 13.87 0 0 0 13.582-11.03c.968-4.624 1.918-8.723 1.918-11.03v-.063c.063-.724.09-1.457.1-2.172.09-10.524-6.406-29.743-29.227-26.693 0 0-18.939 2.163-21.092 20.667 0 0-.9 8.533-1.493 14.722a4.01 4.01 0 0 1-.036.326 13.87 13.87 0 0 0 13.808 15.265h22.441z" class="cls-5" data-name="Path 2848" transform="translate(-60.638 -146.597)"/>
            <g id="Group_628" data-name="Group 628" transform="translate(97.948 83.735)">
                <g id="Group_627" data-name="Group 627">
                    <path id="Path_2849" d="M178.315 238.04s4.036 31.969 8.641 48.383c0 0 6.551-3.049 15.12-7.194 9.293-4.488 22.658-12.686 22.658-12.686l3.375 8.135s-34.519 32.575-45.948 34.422-18.441-39.09-18.441-39.09z" class="cls-3" data-name="Path 2849" transform="translate(-163.72 -238.04)"/>
                    <path id="Path_2850" d="M230.347 268.731s-.95-4.542 1.086-7.619 5.131-8.831 8.759-10.026c3.04-1-1.448 4.126-1.574 7.384a51.312 51.312 0 0 0 7.782-1.629c2.868-.932 8.542-2.09 11.175-2.615a.726.726 0 0 1 .633 1.249c-.9.778-2.778 1.755-6.651 2.687 0 0 9.456-1.792 10.433-.344s-10.876 3.466-10.876 3.466 9.2-.543 9.447.9c.145.878-9.392 2.9-9.392 2.9s8.7.235 6.6 1.611c-.615.4-17.455 2.3-23.318 9.221-.023 0-3.969-4.081-4.104-7.185z" class="cls-6" data-name="Path 2850" transform="translate(-170.038 -239.269)"/>
                </g>
            </g>
            <g id="Group_630" data-name="Group 630" transform="translate(0 12.258)">
                <g id="Group_629" data-name="Group 629">
                    <path id="Path_2851" d="M109.816 227.586s-19.31 5.692-35.941 9.447c0 0-.434-7.212-.869-16.722-.471-10.315.38-25.961.38-25.961l-8.759.9s-12.233 45.85-8.415 56.785 52.283-4.38 52.283-4.38z" class="cls-3" data-name="Path 2851" transform="translate(-55.474 -162.406)"/>
                    <path id="Path_2852" d="M73.527 192.068s4.443-1.33 6.18-4.579 6.533-9.791 3.574-12.216c-1.077-.887-1.864 2.977-4.66 4.642a50.518 50.518 0 0 1-2.271-7.619c-.543-2.968-2.226-8.515-3.022-11.076a.722.722 0 0 0-1.393.036c-.253 1.158-.226 3.276.8 7.13 0 0-2.923-9.166-4.66-9.338S70.2 170.27 70.2 170.27s-3.9-8.352-5.284-7.881c-.842.29 1.918 9.637 1.918 9.637s-4.343-7.547-4.551-5.04c-.063.733 6.289 16.45 2.986 24.9-.003.001 5.462 1.54 8.258.182z" class="cls-6" data-name="Path 2852" transform="translate(-56.121 -159.048)"/>
                </g>
            </g>
            <g id="Group_635" data-name="Group 635" transform="translate(37.042 72.85)">
                <g id="Group_632" data-name="Group 632" transform="translate(3.656)">
                    <path id="Path_2853" d="M171.572 360.8l.154.679c-15.039 10.18-71.276 3.23-71.276 3.23.1-1.176.226-2.416.389-3.692.172-1.421.389-2.9.642-4.416.679-4.09 1.593-8.524 2.615-13.075.326-1.43.661-2.887 1-4.352 1.013-4.352 2.1-8.759 3.122-13.048q.529-2.212 1.041-4.38c.471-2.009.914-3.99 1.339-5.9a218.02 218.02 0 0 0 1.466-7.3c.281-1.547.525-3.04.706-4.452.217-1.493.362-2.9.452-4.217-.9-3.3-1.728-6.542-2.506-9.682-.389-1.6-.769-3.158-1.14-4.705a458.572 458.572 0 0 1-3.058-14.062c-.317-1.6-.624-3.158-.9-4.678-.986-5.2-1.774-9.908-2.416-14.007-.244-1.638-.48-3.167-.679-4.606a308.109 308.109 0 0 1-.588-4.361c-.751-5.818-1.013-9.121-1.013-9.121.136-.109.271-.208.416-.308a30.642 30.642 0 0 1 7.338-3.366c3.131-1.077 6.587-2.009 9.637-2.742q.692-.163 1.357-.326c4.009-.941 7-1.484 7-1.484 13.636 2.859 17.527 1.023 17.527 1.023l6.931 2.045.814.29 5.049 1.774.208.072 9.058 3.185 6.044 2.117-2.362 10.822-1.022 4.723-3.086 14.243-1.013 4.705-3.077 14.188-1.013 4.66-2.543 11.754.507 2.244 1 4.361 1.574 6.931 1.43 6.271.986 4.343 2.968 13.066.986 4.316 2.941 12.921z" class="cls-2" data-name="Path 2853" transform="translate(-100.45 -226.05)"/>
                    <path id="Path_2854" d="M153.956 229.738c-1.448 8.524-5.583 17.1-14.179 18.025-10.379 1.122-15.763-11.9-18.106-19.9 4.009-.941 8.162-1.855 8.162-1.855 13.636 2.859 16.269 1.113 16.269 1.113l7.031 2.316z" class="cls-6" data-name="Path 2854" transform="translate(-102.469 -226.01)"/>
                    <g id="Group_631" data-name="Group 631" transform="translate(22.73 .389)">
                        <path id="Path_2855" d="M139.089 240.646c-10.876 0-13.482-13.437-13.51-13.573a.539.539 0 0 1 1.059-.2c.1.543 2.57 13.22 13.084 12.677 9.2-.461 9.745-10.677 9.763-11.112a.539.539 0 0 1 1.077.045c-.009.118-.6 11.627-10.777 12.143-.244.011-.47.02-.696.02z" class="cls-7" data-name="Path 2855" transform="translate(-125.57 -226.44)"/>
                    </g>
                    <path id="Path_2856" d="M118.383 237.761a2.651 2.651 0 1 1-2.651-2.651 2.649 2.649 0 0 1 2.651 2.651z" class="cls-3" data-name="Path 2856" transform="translate(-101.652 -226.876)"/>
                    <path id="Path_2857" d="M112.5 252.081a2.651 2.651 0 1 1-2.651-2.651 2.649 2.649 0 0 1 2.651 2.651z" class="cls-3" data-name="Path 2857" transform="translate(-101.092 -228.238)"/>
                    <path id="Path_2858" d="M131.243 258.851a2.651 2.651 0 1 1-2.651-2.651 2.649 2.649 0 0 1 2.651 2.651z" class="cls-3" data-name="Path 2858" transform="translate(-102.875 -228.882)"/>
                    <path id="Path_2859" d="M118.192 266.964a2.654 2.654 0 1 1-3.448-1.484 2.648 2.648 0 0 1 3.448 1.484z" class="cls-3" data-name="Path 2859" transform="translate(-101.651 -229.747)"/>
                    <path id="Path_2860" d="M143.613 272.281a2.651 2.651 0 1 1-2.651-2.651 2.649 2.649 0 0 1 2.651 2.651z" class="cls-3" data-name="Path 2860" transform="translate(-104.052 -230.16)"/>
                    <path id="Path_2861" d="M162.333 278.331a2.651 2.651 0 1 1-2.651-2.651 2.649 2.649 0 0 1 2.651 2.651z" class="cls-3" data-name="Path 2861" transform="translate(-105.833 -230.735)"/>
                    <path id="Path_2862" d="M166.1 240.7a2.651 2.651 0 1 1-2.651-2.651 2.649 2.649 0 0 1 2.651 2.651z" class="cls-3" data-name="Path 2862" transform="translate(-106.191 -227.155)"/>
                    <path id="Path_2863" d="M144.8 291.021a2.651 2.651 0 1 1-2.651-2.651 2.649 2.649 0 0 1 2.651 2.651z" class="cls-3" data-name="Path 2863" transform="translate(-104.165 -231.943)"/>
                    <path id="Path_2864" d="M126.722 300.121a2.651 2.651 0 1 1-2.651-2.651 2.649 2.649 0 0 1 2.651 2.651z" class="cls-3" data-name="Path 2864" transform="translate(-102.445 -232.808)"/>
                    <path id="Path_2865" d="M124.613 283.551a2.651 2.651 0 1 1-2.651-2.651 2.649 2.649 0 0 1 2.651 2.651z" class="cls-3" data-name="Path 2865" transform="translate(-102.244 -231.232)"/>
                    <path id="Path_2866" d="M153.532 259.621a2.656 2.656 0 1 1-2.66-2.651 2.651 2.651 0 0 1 2.66 2.651z" class="cls-3" data-name="Path 2866" transform="translate(-104.995 -228.955)"/>
                    <path id="Path_2867" d="M169.753 255.921a2.651 2.651 0 1 1-2.651-2.651 2.649 2.649 0 0 1 2.651 2.651z" class="cls-3" data-name="Path 2867" transform="translate(-106.539 -228.603)"/>
                    <path id="Path_2868" d="M159.4 295.88a2.651 2.651 0 1 1-2.651-2.66 2.649 2.649 0 0 1 2.651 2.66z" class="cls-3" data-name="Path 2868" transform="translate(-105.554 -232.404)"/>
                    <path id="Path_2869" d="M160.183 319.1a2.651 2.651 0 1 1-2.651-2.651 2.649 2.649 0 0 1 2.651 2.651z" class="cls-3" data-name="Path 2869" transform="translate(-105.628 -234.614)"/>
                    <path id="Path_2870" d="M145.272 309.514a2.654 2.654 0 1 1-3.448-1.484 2.648 2.648 0 0 1 3.448 1.484z" class="cls-3" data-name="Path 2870" transform="translate(-104.227 -233.795)"/>
                    <path id="Path_2871" d="M125.292 318.114a2.654 2.654 0 1 1-3.448-1.484 2.648 2.648 0 0 1 3.448 1.484z" class="cls-3" data-name="Path 2871" transform="translate(-102.326 -234.613)"/>
                </g>
                <path id="Path_2872" d="M176.817 408.491l-.552-3.3-2.145-12.84-.733-4.4-2.045-12.261-3.719.163-49.306 2.235-18.26.823-1.167 9.546-.552 4.443-1.62 13.175-.3 2.416z" class="cls-2" data-name="Path 2872" transform="translate(-96.411 -240.25)"/>
                <g id="Group_634" data-name="Group 634" transform="translate(0 89.509)">
                    <g id="Group_633" data-name="Group 633">
                        <path id="Path_2873" d="M176.807 403.662l-.507-2.986-.045-.317-.353-2.108-.353-2.09-1.449-8.641-.416-2.552-.317-1.837-.045-.271-1.864-11.193-.127-.8-.163-.688-.145-.606-.832-3.7-1.656-7.239-.48-2.072-.814-3.619-.986-4.334-.67-2.968-.48-2.072-1.819-8.008-.67-2.932-.317-1.421-.145-.652-1.276-5.628c-20.043 5.918-41.271 2.407-50.69.29-.416 1.9-.878 3.891-1.339 5.9-.109.443-.208.878-.317 1.321-.163.688-.335 1.384-.5 2.072-.063.335-.145.651-.226.986-.778 3.285-1.593 6.633-2.389 9.954-.163.688-.317 1.384-.48 2.054-.081.353-.163.688-.253 1.05-.335 1.466-.67 2.932-1 4.352a457.46 457.46 0 0 0-1.194 5.61c-.145.688-.29 1.357-.416 2.027-.38 1.864-.715 3.683-1 5.438a88.06 88.06 0 0 0-.624 4.434c-.063.443-.109.878-.172 1.294-.063.715-.145 1.4-.208 2.09 0 .109-.018.19-.018.29l-1.167 9.537-.19 1.484-.253 2.072-.109.878-1.299 10.439-.253 2.09-.081.67-.29 2.407h80.4z" class="cls-5" data-name="Path 2873" transform="translate(-96.41 -324.93)"/>
                    </g>
                </g>
            </g>
            <g id="Group_648" data-name="Group 648" transform="translate(52.579 19.451)">
                <g id="Group_642" data-name="Group 642" transform="translate(3.741)">
                    <g id="Group_639" data-name="Group 639" transform="translate(33.819 19.382)">
                        <path id="Path_2874" d="M158.328 190.483s3.258-4.126 5.683-.715-1 13.5-6.94 11.039z" class="cls-8" data-name="Path 2874" transform="translate(-155.278 -188.417)"/>
                        <g id="Group_636" data-name="Group 636" transform="translate(2.597 3.62)">
                            <path id="Path_2875" d="M158.458 198.075a.5.5 0 0 0 .48-.344c.923-3.113 4.316-4.38 4.352-4.389a.466.466 0 0 0 .29-.615.514.514 0 0 0-.642-.281c-.163.054-3.9 1.439-4.959 5.022a.478.478 0 0 0 .344.588.7.7 0 0 0 .135.019z" class="cls-9" data-name="Path 2875" transform="translate(-157.96 -192.418)"/>
                        </g>
                        <g id="Group_637" data-name="Group 637" transform="translate(4.361 5.489)">
                            <path id="Path_2876" d="M162.073 196.7a.58.58 0 0 0 .271-.072.467.467 0 0 0 .154-.661 4.534 4.534 0 0 0-1.882-1.439.505.505 0 0 0-.661.244.467.467 0 0 0 .253.633 3.676 3.676 0 0 1 1.448 1.086.487.487 0 0 0 .417.209z" class="cls-9" data-name="Path 2876" transform="translate(-159.909 -194.483)"/>
                        </g>
                        <g id="Group_638" data-name="Group 638" transform="translate(0 10.562)">
                            <path id="Path_2877" d="M156.674 201.854a3.524 3.524 0 1 0 3.4-1.095.638.638 0 0 1 .127-.67 4.063 4.063 0 0 1 1.8.887 4.218 4.218 0 1 1-5.972.588c.21.1.427.191.645.29z" class="cls-7" data-name="Path 2877" transform="translate(-155.09 -200.09)"/>
                        </g>
                    </g>
                    <path id="Path_2878" d="M130.69 214.02v12.38s5.755 4.434 10.234 4.823 6.035-4.9 6.035-4.9v-11.516z" class="cls-6" data-name="Path 2878" transform="translate(-118.95 -171.471)"/>
                    <path id="Path_2879" d="M130.69 215.36v4.94c3.013 3.339 8.352 4.524 16.269 3.357v-7.51z" class="cls-8" data-name="Path 2879" transform="translate(-118.95 -171.598)"/>
                    <path id="Path_2880" d="M156.7 193.333a64.924 64.924 0 0 1-.525 3.619c-1.421 8.044-6.515 16.74-12.94 18.2-13.881 3.149-19.645-7.755-21.862-15.79-.244-.9.217-1.918.018-2.977-.461-2.506-1.475-5.357-1.7-8.162a154.927 154.927 0 0 1-.353-5.6 11.37 11.37 0 0 1 7.031-11.139c6.379-2.534 16.07-4.542 25.246.832a11.45 11.45 0 0 1 5.592 9.7 86.615 86.615 0 0 1-.507 11.317z" class="cls-6" data-name="Path 2880" transform="translate(-117.869 -167.179)"/>
                    <g id="Group_640" data-name="Group 640" transform="translate(20.409 23.469)">
                        <path id="Path_2881" d="M141.093 201.843a.542.542 0 0 1-.09-1.077l1.855-.308-2.552-6.8a.539.539 0 0 1 .317-.7.546.546 0 0 1 .7.317l3.013 8.017-3.14.525a.231.231 0 0 1-.103.026z" class="cls-8" data-name="Path 2881" transform="translate(-140.27 -192.934)"/>
                    </g>
                    <path id="Path_2882" d="M148.52 192.624c0 1.185.615 2.154 1.366 2.154s1.366-.959 1.366-2.154-.615-2.154-1.366-2.154-1.366.968-1.366 2.154z" class="cls-5" data-name="Path 2882" transform="translate(-120.646 -169.23)"/>
                    <path id="Path_2883" d="M131.82 192.624c0 1.185.615 2.154 1.366 2.154s1.366-.959 1.366-2.154-.615-2.154-1.366-2.154-1.366.968-1.366 2.154z" class="cls-5" data-name="Path 2883" transform="translate(-119.058 -169.23)"/>
                    <path id="Path_2884" d="M153.762 186.567a26.115 26.115 0 0 0-5.692-.489c-.624.018-1.122.489-1.032.986v.009a.872.872 0 0 0 .986.624 29.92 29.92 0 0 1 7.8.489 1.017 1.017 0 0 0-.416-.851 3.21 3.21 0 0 0-1.646-.768z" class="cls-5" data-name="Path 2884" transform="translate(-120.504 -168.811)"/>
                    <path id="Path_2885" d="M129.964 186.84a26.232 26.232 0 0 1 5.683-.561c.624.009 1.131.48 1.05.977v.009a.879.879 0 0 1-.986.642 29.706 29.706 0 0 0-7.791.6 1.046 1.046 0 0 1 .4-.86 3.324 3.324 0 0 1 1.644-.807z" class="cls-5" data-name="Path 2885" transform="translate(-118.685 -168.831)"/>
                    <path id="Path_2886" d="M147.219 206.33c-.4 1.891-1.728 5.366-6.2 5.366-4.488 0-5.746-3.176-6.171-5.366z" class="cls-7" data-name="Path 2886" transform="translate(-119.346 -170.739)"/>
                    <g id="Group_641" data-name="Group 641" transform="translate(18.901 42.507)">
                        <path id="Path_2887" d="M141.433 215.671a5.3 5.3 0 0 0 2.479-.724.526.526 0 0 0-.552-.9 4.206 4.206 0 0 1-1.927.57 4.419 4.419 0 0 1-2.027-.57.528.528 0 0 0-.543.9 5.663 5.663 0 0 0 2.57.724z" class="cls-8" data-name="Path 2887" transform="translate(-138.604 -213.974)"/>
                    </g>
                    <path id="Path_2888" d="M157.108 191.883c-.127.109-.253.072-.371-.145-1.837-3.23-.109-9.682-5.538-12.152a11.491 11.491 0 0 1-5.619-5.755 11.631 11.631 0 0 1-3.4 3.1 97.68 97.68 0 0 1-12.722 6.2 21.045 21.045 0 0 0-4.262 2.145 1 1 0 0 1 .118.036 9.732 9.732 0 0 0-.48 7.447c1.312 4.533-.38 12.008-3.294 13.736.054-.127 2.244-5.293 1-9.519-.715-2.416-.706-6.271-1.384-8.569-.751-.516-2.479-1.384-3.058-1.728-.163-1.982-.29-3.936-.371-5.71a11.582 11.582 0 0 1 7.411-11.356c6.723-2.588 16.939-4.633 26.612.851a11.621 11.621 0 0 1 5.9 9.881 85.867 85.867 0 0 1-.542 11.538z" class="cls-5" data-name="Path 2888" transform="translate(-117.716 -166.997)"/>
                </g>
                <g id="Group_647" data-name="Group 647" transform="translate(0 18.927)">
                    <path id="Path_2889" d="M120.812 190.4s-3.791-4.6-6.026-1.285 1.068 13.482 6.542 11.094z" class="cls-6" data-name="Path 2889" transform="translate(-113.629 -187.914)"/>
                    <g id="Group_643" data-name="Group 643" transform="translate(0 9.885)">
                        <path id="Path_2890" d="M120.919 201.419a3.528 3.528 0 1 1-4.579-1.584 3.593 3.593 0 0 1 1.547-.317.8.8 0 0 0 .036-.679 4.26 4.26 0 0 0-1.964.416 4.183 4.183 0 0 0-2.253 2.769 4.216 4.216 0 0 0 8.18 2.045 4.186 4.186 0 0 0-.271-2.787c-.235.046-.47.091-.696.137z" class="cls-7" data-name="Path 2890" transform="translate(-113.582 -198.838)"/>
                    </g>
                    <g id="Group_644" data-name="Group 644" transform="translate(1.598 3.405)">
                        <path id="Path_2891" d="M120.109 197.172a.464.464 0 0 1-.443-.335 7.145 7.145 0 0 0-4.018-4.262.464.464 0 0 1 .326-.869 7.966 7.966 0 0 1 4.579 4.877.461.461 0 0 1-.317.57.61.61 0 0 1-.127.019z" class="cls-8" data-name="Path 2891" transform="translate(-115.348 -191.678)"/>
                    </g>
                    <g id="Group_646" data-name="Group 646" transform="translate(2.735 5.211)">
                        <g id="Group_645" data-name="Group 645">
                            <path id="Path_2892" d="M117.071 195.833a.54.54 0 0 1-.253-.072.457.457 0 0 1-.136-.642 4.317 4.317 0 0 1 1.737-1.4.466.466 0 1 1 .38.851 3.362 3.362 0 0 0-1.339 1.059.474.474 0 0 1-.389.204z" class="cls-8" data-name="Path 2892" transform="translate(-116.604 -193.673)"/>
                        </g>
                    </g>
                </g>
            </g>
        </g>
        <g id="Group_737" data-name="Group 737" transform="translate(163.601 141.343)">
            <path id="Path_2893" d="M338.666 299.662c-8.822 6.334-22.622 10.677-22.622 10.677l-2.823-10.162-2.208-7.927-1.556-5.592-15.817-.009c.86 2.968 1.737 5.99 2.633 8.976 1.14 3.846 2.28 7.61 3.357 11.085 1.529 4.886 2.932 9.184 4.072 12.261.262.715.57 1.493.923 2.326 2.117 5.71 3.819 11.908 11.89 8.017 7.1-3.42 16.74-8.162 21.554-11.311z" class="cls-6" data-name="Path 2893" transform="translate(-189.404 -158.809)"/>
            <g id="Group_650" data-name="Group 650" transform="translate(103.217 81.34)">
                <path id="Path_2894" d="M296.55 296.215c1.14 3.846 2.28 7.61 3.366 11.085a22.458 22.458 0 0 0 13.582-6.533l-2.208-7.927z" class="cls-8" data-name="Path 2894" transform="translate(-292.898 -240.738)"/>
                <path id="Path_2895" d="M292.809 235.26s16.5 39.353 23.6 52.1c0 0-9.944 8.451-19.636 8.687-.001.002-5.584-43.205-3.964-60.787z" class="cls-10" data-name="Path 2895" transform="translate(-292.514 -235.26)"/>
            </g>
            <g id="Group_654" data-name="Group 654" transform="translate(32.371 215.269)">
                <g id="Group_652" data-name="Group 652">
                    <g id="Group_651" data-name="Group 651">
                        <path id="Path_2896" d="M246.732 409.24c.163-2.751.326-5.375.461-7.809.588-9.935.959-16.713.959-16.713l-3.891-.172-2.19-.1-26.449-1.176s-.48 7.583-1.05 18.722c-.118 2.28-.235 4.705-.353 7.248h32.512z" class="cls-2" data-name="Path 2896" transform="translate(-214.22 -383.27)"/>
                    </g>
                </g>
                <path id="Path_2897" d="M244.3 384.556l3.891.172s-.38 6.777-.959 16.713a235.939 235.939 0 0 1-32.62.561 1718.46 1718.46 0 0 1 1.05-18.722l26.449 1.176z" class="cls-3" data-name="Path 2897" transform="translate(-214.257 -383.271)"/>
                <g id="Group_653" data-name="Group 653" transform="translate(26.467 1.176)">
                    <path id="Path_2898" d="M245.66 409.363c.615-10.614 1.113-19.7 1.393-24.694l-2.19-.1c-.271 5.013-.778 14.143-1.393 24.793z" class="cls-3" data-name="Path 2898" transform="translate(-243.47 -384.57)"/>
                </g>
            </g>
            <g id="Group_658" data-name="Group 658" transform="translate(71.977 215.269)">
                <g id="Group_656" data-name="Group 656" transform="translate(.009)">
                    <g id="Group_655" data-name="Group 655">
                        <path id="Path_2899" d="M259.421 409.24h32.512c-.118-2.543-.244-4.968-.353-7.248a1718.46 1718.46 0 0 0-1.05-18.722l-26.449 1.176-2.19.1-3.891.172s.38 6.777.959 16.713c.136 2.434.29 5.058.462 7.809z" class="cls-2" data-name="Path 2899" transform="translate(-258 -383.27)"/>
                    </g>
                </g>
                <path id="Path_2900" d="M261.881 384.556l-3.891.172s.38 6.777.959 16.713a235.938 235.938 0 0 0 32.62.561 1718.46 1718.46 0 0 0-1.05-18.722l-26.449 1.176z" class="cls-3" data-name="Path 2900" transform="translate(-257.99 -383.271)"/>
                <g id="Group_657" data-name="Group 657" transform="translate(3.891 1.176)">
                    <path id="Path_2901" d="M265.873 409.363c-.615-10.65-1.122-19.78-1.393-24.793l-2.19.1c.271 4.995.778 14.08 1.393 24.694z" class="cls-3" data-name="Path 2901" transform="translate(-262.29 -384.57)"/>
                </g>
            </g>
            <g id="Group_662" data-name="Group 662" transform="translate(28.027 65.496)">
                <g id="Group_661" data-name="Group 661">
                    <g id="Group_660" data-name="Group 660">
                        <g id="Group_659" data-name="Group 659">
                            <path id="Path_2902" d="M209.42 348.675v1.611c.009 9.673.063 17.165.109 20.848a154.76 154.76 0 0 0 28.033 4.922c.425.036.842.063 1.267.1.226.018.452.036.679.045.5.036 1 .063 1.5.091.561.036 1.113.063 1.674.09a147.518 147.518 0 0 0 19.075-.344c1.285-.109 2.561-.235 3.846-.371l.244-.027a37.1 37.1 0 0 0 .986-.118c.2-.027.4-.045.6-.072a156.482 156.482 0 0 0 22.2-4.325c.018-1.674.027-4.153.027-7.275v-1.8c0-4.47-.036-10.035-.081-16.315 0-.534-.009-1.077-.009-1.629-.036-4.19-.081-8.669-.136-13.347-.009-.543-.009-1.086-.018-1.629-.063-4.8-.136-9.773-.217-14.831-.054-3.086-.109-6.207-.172-9.32-.063-3.158-.136-6.325-.208-9.465l-.054-2.054c-.724-29.725-1.982-57.052-4.054-60.1-1.439-2.108-4.723-4.588-8.605-7.085-.471-.3-.959-.606-1.448-.914-1.647-1.032-15.12-5.61-16.831-6.615l-14.234-1c-.09.054-13.7 4.642-13.79 4.687-.588.335-1.176.67-1.764 1.013-5.04 2.9-10.017 5.972-12.876 8.614a14.355 14.355 0 0 0-1.113 1.122 7.486 7.486 0 0 0-.661.851 4.565 4.565 0 0 0-.5 1.249c-1.719 6.262-2.624 30.856-3.077 57.622q-.054 2.877-.09 5.782c-.009.851-.027 1.7-.036 2.552l-.027 1.755c0 .3-.009.588-.009.878-.018 1.457-.036 2.9-.045 4.352-.009 1.068-.027 2.135-.036 3.2-.113 13.49-.158 26.583-.149 37.252z" class="cls-3" data-name="Path 2902" transform="translate(-209.419 -217.75)"/>
                        </g>
                    </g>
                </g>
            </g>
            <g id="Group_664" data-name="Group 664" transform="translate(0 81.613)">
                <g id="Group_663" data-name="Group 663" transform="translate(0 10.653)">
                    <path id="Path_2903" d="M181.019 389.711c-.353 3.8 4.28 1.737 2.968-5.963s2.407-14.668 4-14.451-1.321 8.406.1 11.356 3.258-2.778 5.085-6.253c1.9-3.61 1.783-11.483.923-17.1s9.32-39.76 9.374-49.65l1.24-4.189 4.542-15.356 7.112-24.042s-4.262-18.2-11.447-16.631c0 0-3.8 12.677-7.872 26.974-.688 2.425-1.384 4.9-2.072 7.366-2.9 10.361-5.619 20.595-6.886 26.666-3.339 16.034-3.6 49.351-3.6 49.351s-5.9 12.243-6.035 17.69c-.137 5.807 2.912 10.431 2.568 14.232z" class="cls-6" data-name="Path 2903" transform="translate(-178.445 -247.334)"/>
                    <path id="Path_2904" d="M196.72 284.615l9.736 21.69L211 290.949l-12.208-13.709c-.692 2.425-1.384 4.904-2.072 7.375z" class="cls-8" data-name="Path 2904" transform="translate(-180.184 -250.179)"/>
                </g>
                <path id="Path_2905" d="M196.19 274.189c4.271 7.32 8.614 14.6 12.94 21.9 1.421-4.769 2.9-9.347 4.289-13.564 0-.009.009-.018.009-.036.552-1.683 1.095-3.3 1.611-4.859l.027-.081c.181-.543.353-1.086.534-1.611 2.063-6.244 3.665-11.2 4.126-14.1 1.231-7.791-2.126-23.038-6.868-26.051-.127.271-.5-.57-.724-.054-.832 1.918-4.524 6.669-6.352 11.293-.235.588-.471 1.2-.724 1.828-2.643 6.803-5.873 15.646-8.868 25.335z" class="cls-3" data-name="Path 2905" transform="translate(-180.133 -235.561)"/>
            </g>
            <g id="Group_723" data-name="Group 723" transform="translate(25.401 70.193)">
                <g id="Group_666" data-name="Group 666" transform="translate(33.229 1.613)">
                    <g id="Group_665" data-name="Group 665">
                        <path id="Path_2906" d="M253.3 232.656c6.162 0 10.515-5.628 10.7-5.864a.836.836 0 0 0-.109-1.122.711.711 0 0 0-1.05.118c-.054.072-4.1 5.275-9.537 5.275-5.375 0-8.65-5.891-8.678-5.945a.718.718 0 0 0-1.013-.29.825.825 0 0 0-.271 1.086c.142.272 3.725 6.742 9.958 6.742z" class="cls-10" data-name="Path 2906" transform="translate(-243.239 -224.723)"/>
                    </g>
                </g>
                <g id="Group_667" data-name="Group 667" transform="translate(65.926 56.15)">
                    <path id="Path_2907" d="M282.809 292.284a.643.643 0 0 0 .335-.091.833.833 0 0 0 .335-1.077l-2.687-5.683a.725.725 0 0 0-1-.353.833.833 0 0 0-.335 1.077l2.687 5.683a.743.743 0 0 0 .665.444z" class="cls-10" data-name="Path 2907" transform="translate(-279.374 -284.994)"/>
                </g>
                <g id="Group_668" data-name="Group 668" transform="translate(74.606 50.95)">
                    <path id="Path_2908" d="M289.323 287.077a.71.71 0 0 0 .326.118.769.769 0 0 0 .814-.733l.525-6.343a.787.787 0 0 0-.679-.869.768.768 0 0 0-.814.724l-.525 6.343a.811.811 0 0 0 .353.76z" class="cls-10" data-name="Path 2908" transform="translate(-288.966 -279.247)"/>
                </g>
                <g id="Group_669" data-name="Group 669" transform="translate(59.778 41.07)">
                    <path id="Path_2909" d="M273.322 276.211a.772.772 0 0 0 .742-.67l.968-6.28a.8.8 0 0 0-.615-.923.755.755 0 0 0-.86.661l-.968 6.28a.8.8 0 0 0 .615.923c.037-.002.073.009.118.009z" class="cls-10" data-name="Path 2909" transform="translate(-272.58 -268.328)"/>
                </g>
                <g id="Group_670" data-name="Group 670" transform="translate(32.584 44.208)">
                    <path id="Path_2910" d="M246.312 278.876a.736.736 0 0 0 .38-.109.836.836 0 0 0 .262-1.095l-3.031-5.483a.726.726 0 0 0-1.032-.28.836.836 0 0 0-.262 1.095l3.031 5.483a.761.761 0 0 0 .652.389z" class="cls-10" data-name="Path 2910" transform="translate(-242.526 -271.796)"/>
                </g>
                <g id="Group_671" data-name="Group 671" transform="translate(65.292 21.667)">
                    <path id="Path_2911" d="M279.421 251.948a.768.768 0 0 0 .407-.127l4.995-3.457a.853.853 0 0 0 .226-1.113.722.722 0 0 0-1.041-.235l-4.995 3.457a.854.854 0 0 0-.226 1.113.746.746 0 0 0 .634.362z" class="cls-10" data-name="Path 2911" transform="translate(-278.673 -246.885)"/>
                </g>
                <g id="Group_672" data-name="Group 672" transform="translate(40.327 70.484)">
                    <path id="Path_2912" d="M254.519 308.124a.643.643 0 0 0 .335-.09.833.833 0 0 0 .335-1.077l-2.687-5.683a.723.723 0 0 0-1-.353.833.833 0 0 0-.335 1.077l2.687 5.682a.738.738 0 0 0 .665.444z" class="cls-10" data-name="Path 2912" transform="translate(-251.084 -300.834)"/>
                </g>
                <g id="Group_673" data-name="Group 673" transform="translate(49.783 26.02)">
                    <path id="Path_2913" d="M267.331 256.676a.724.724 0 0 0 .633-.38.833.833 0 0 0-.235-1.1l-5.049-3.375a.722.722 0 0 0-1.032.253.833.833 0 0 0 .235 1.1l5.049 3.375a.67.67 0 0 0 .399.127z" class="cls-10" data-name="Path 2913" transform="translate(-261.534 -251.696)"/>
                </g>
                <g id="Group_674" data-name="Group 674" transform="translate(67.576 2.923)">
                    <path id="Path_2914" d="M281.2 230.622a.868.868 0 0 0 .081.434.769.769 0 0 0 .606.425.756.756 0 0 0 .8-.742l.235-3.656c-.471-.3-.95-.606-1.448-.914z" class="cls-10" data-name="Path 2914" transform="translate(-281.198 -226.17)"/>
                </g>
                <g id="Group_675" data-name="Group 675" transform="translate(68.513 37.258)">
                    <path id="Path_2915" d="M288.031 269.1a.724.724 0 0 0 .633-.38.833.833 0 0 0-.235-1.1l-5.049-3.375a.722.722 0 0 0-1.032.253.833.833 0 0 0 .235 1.1l5.049 3.375a.67.67 0 0 0 .399.127z" class="cls-10" data-name="Path 2915" transform="translate(-282.234 -264.116)"/>
                </g>
                <g id="Group_676" data-name="Group 676" transform="translate(30.439 8.236)">
                    <path id="Path_2916" d="M243.779 238.32a.735.735 0 0 0 .416-.136.844.844 0 0 0 .217-1.113l-2.877-4.669a.721.721 0 0 0-1.041-.226.844.844 0 0 0-.217 1.113l2.877 4.669a.732.732 0 0 0 .625.362z" class="cls-10" data-name="Path 2916" transform="translate(-240.156 -232.042)"/>
                </g>
                <g id="Group_677" data-name="Group 677" transform="translate(30.738 89.005)">
                    <path id="Path_2917" d="M241.232 327.5a.724.724 0 0 0 .543-.244l4.126-4.6a.835.835 0 0 0-.018-1.131.709.709 0 0 0-1.059.027l-4.126 4.6a.835.835 0 0 0 .018 1.131.719.719 0 0 0 .516.217z" class="cls-10" data-name="Path 2917" transform="translate(-240.486 -321.302)"/>
                </g>
                <g id="Group_678" data-name="Group 678" transform="translate(45.894 88.045)">
                    <path id="Path_2918" d="M257.982 326.439a.724.724 0 0 0 .543-.244l4.126-4.6a.835.835 0 0 0-.018-1.131.709.709 0 0 0-1.059.027l-4.126 4.6a.835.835 0 0 0 .018 1.131.7.7 0 0 0 .516.217z" class="cls-10" data-name="Path 2918" transform="translate(-257.236 -320.242)"/>
                </g>
                <g id="Group_679" data-name="Group 679" transform="translate(53.506 118.469)">
                    <path id="Path_2919" d="M269.676 360.692a.83.83 0 0 0-.027-.624l-2.57-5.746a.736.736 0 0 0-1-.38.826.826 0 0 0-.353 1.068l2.57 5.746a.736.736 0 0 0 1 .38.864.864 0 0 0 .38-.444z" class="cls-10" data-name="Path 2919" transform="translate(-265.648 -353.864)"/>
                </g>
                <g id="Group_680" data-name="Group 680" transform="translate(10.018 137.408)">
                    <path id="Path_2920" d="M221.616 381.622a.83.83 0 0 0-.027-.624l-2.57-5.746a.736.736 0 0 0-1-.38.826.826 0 0 0-.353 1.068l2.57 5.746a.736.736 0 0 0 1 .38.766.766 0 0 0 .38-.444z" class="cls-10" data-name="Path 2920" transform="translate(-217.588 -374.794)"/>
                </g>
                <g id="Group_681" data-name="Group 681" transform="translate(32.723 149.339)">
                    <path id="Path_2921" d="M242.68 392.387c.507.036 1 .063 1.5.091l.525-3.574a.8.8 0 0 0-.624-.914.768.768 0 0 0-.86.67z" class="cls-10" data-name="Path 2921" transform="translate(-242.68 -387.981)"/>
                </g>
                <g id="Group_682" data-name="Group 682" transform="translate(25.547 135.194)">
                    <path id="Path_2922" d="M235.935 380.1a.768.768 0 0 0 .308-.534l.923-6.289a.8.8 0 0 0-.624-.914.756.756 0 0 0-.86.67l-.923 6.289a.8.8 0 0 0 .624.914.771.771 0 0 0 .552-.136z" class="cls-10" data-name="Path 2922" transform="translate(-234.75 -372.348)"/>
                </g>
                <g id="Group_683" data-name="Group 683" transform="translate(59.196 83.219)">
                    <path id="Path_2923" d="M275.677 322.022a.705.705 0 0 0 .371-.109.827.827 0 0 0 .271-1.095l-2.986-5.511a.721.721 0 0 0-1.022-.29.829.829 0 0 0-.271 1.095l2.986 5.511a.724.724 0 0 0 .651.399z" class="cls-10" data-name="Path 2923" transform="translate(-271.937 -314.909)"/>
                </g>
                <g id="Group_684" data-name="Group 684" transform="translate(53.424 69.303)">
                    <path id="Path_2924" d="M266.311 306.787a.76.76 0 0 0 .67-.434l2.733-5.655a.821.821 0 0 0-.326-1.077.729.729 0 0 0-1.013.344l-2.733 5.655a.821.821 0 0 0 .326 1.077.675.675 0 0 0 .343.09z" class="cls-10" data-name="Path 2924" transform="translate(-265.558 -299.529)"/>
                </g>
                <g id="Group_685" data-name="Group 685" transform="translate(77.715 71.014)">
                    <path id="Path_2925" d="M292.581 306.134a.937.937 0 0 0 .281.226.73.73 0 0 0 .778-.127l3.067-2.76c-.018-.688-.027-1.366-.045-2.054l-3.99 3.581a.838.838 0 0 0-.091 1.134z" class="cls-10" data-name="Path 2925" transform="translate(-292.403 -301.42)"/>
                </g>
                <g id="Group_686" data-name="Group 686" transform="translate(53.46 9.269)">
                    <path id="Path_2926" d="M266.351 240.437a.744.744 0 0 0 .67-.434l2.733-5.655a.821.821 0 0 0-.326-1.077.736.736 0 0 0-1.013.344l-2.733 5.655a.821.821 0 0 0 .326 1.077.675.675 0 0 0 .343.09z" class="cls-10" data-name="Path 2926" transform="translate(-265.598 -233.184)"/>
                </g>
                <g id="Group_687" data-name="Group 687" transform="translate(34.846 29.392)">
                    <path id="Path_2927" d="M246.9 263.283a.9.9 0 0 0 .145-.018.808.808 0 0 0 .6-.941l-1.131-6.253a.749.749 0 0 0-.878-.633.808.808 0 0 0-.6.941l1.131 6.253a.753.753 0 0 0 .733.651z" class="cls-10" data-name="Path 2927" transform="translate(-245.027 -255.422)"/>
                </g>
                <g id="Group_688" data-name="Group 688" transform="translate(44.583 34.887)">
                    <path id="Path_2928" d="M257.663 269.354a.9.9 0 0 0 .145-.018.808.808 0 0 0 .6-.941l-1.131-6.253a.755.755 0 0 0-.878-.633.808.808 0 0 0-.6.941l1.131 6.253a.762.762 0 0 0 .733.651z" class="cls-10" data-name="Path 2928" transform="translate(-255.787 -261.494)"/>
                </g>
                <g id="Group_689" data-name="Group 689" transform="translate(38.73 15.141)">
                    <path id="Path_2929" d="M250.071 246.647a.756.756 0 0 0 .633-.371l3.196-5.376a.826.826 0 0 0-.235-1.1.72.72 0 0 0-1.032.244l-3.194 5.375a.826.826 0 0 0 .235 1.1.652.652 0 0 0 .397.128z" class="cls-10" data-name="Path 2929" transform="translate(-249.319 -239.673)"/>
                </g>
                <g id="Group_690" data-name="Group 690" transform="translate(64.889 70.457)">
                    <path id="Path_2930" d="M282.094 307.9a.844.844 0 0 0 .127-.9l-2.561-5.746a.736.736 0 0 0-1-.38.826.826 0 0 0-.353 1.068l2.561 5.746a.736.736 0 0 0 1 .38.832.832 0 0 0 .226-.168z" class="cls-10" data-name="Path 2930" transform="translate(-278.228 -300.804)"/>
                </g>
                <g id="Group_691" data-name="Group 691" transform="translate(48.695 53.349)">
                    <path id="Path_2931" d="M261.081 289.428a.75.75 0 0 0 .7-.507l2.172-5.927a.816.816 0 0 0-.425-1.041.73.73 0 0 0-.968.452l-2.172 5.927a.816.816 0 0 0 .425 1.041.726.726 0 0 0 .268.055z" class="cls-10" data-name="Path 2931" transform="translate(-260.331 -281.899)"/>
                </g>
                <g id="Group_692" data-name="Group 692" transform="translate(22.176 90.219)">
                    <path id="Path_2932" d="M234.459 329.934a.643.643 0 0 0 .335-.091.833.833 0 0 0 .335-1.077l-2.687-5.683a.725.725 0 0 0-1-.353.833.833 0 0 0-.335 1.077l2.687 5.683a.743.743 0 0 0 .665.444z" class="cls-10" data-name="Path 2932" transform="translate(-231.024 -322.644)"/>
                </g>
                <g id="Group_693" data-name="Group 693" transform="translate(65.117 134.602)">
                    <path id="Path_2933" d="M278.48 375.436a.876.876 0 0 0 .081.362.736.736 0 0 0 1.013.344l5.284-2.932a.82.82 0 0 0 .317-1.086.736.736 0 0 0-1.013-.344l-5.284 2.932a.824.824 0 0 0-.398.724z" class="cls-10" data-name="Path 2933" transform="translate(-278.48 -371.694)"/>
                </g>
                <g id="Group_694" data-name="Group 694" transform="translate(79.468 139.611)">
                    <path id="Path_2934" d="M294.34 379.6a.845.845 0 0 0 .081.362.729.729 0 0 0 1.013.344l2.3-1.276v-1.8l-2.986 1.647a.823.823 0 0 0-.408.723z" class="cls-10" data-name="Path 2934" transform="translate(-294.34 -377.23)"/>
                </g>
                <g id="Group_695" data-name="Group 695" transform="translate(57.185 147.915)">
                    <path id="Path_2935" d="M269.783 387.559l1.81 4.126c.326-.036.652-.072.986-.118.2-.027.4-.045.588-.072l-2.027-4.624a.73.73 0 0 0-1-.389.849.849 0 0 0-.357 1.077z" class="cls-10" data-name="Path 2935" transform="translate(-269.714 -386.406)"/>
                </g>
                <g id="Group_696" data-name="Group 696" transform="translate(15.114 75.138)">
                    <path id="Path_2936" d="M223.962 313.861a.772.772 0 0 0 .742-.67l.968-6.28a.8.8 0 0 0-.615-.923.755.755 0 0 0-.86.661l-.968 6.28a.8.8 0 0 0 .615.923c.037 0 .073.009.118.009z" class="cls-10" data-name="Path 2936" transform="translate(-223.22 -305.978)"/>
                </g>
                <g id="Group_697" data-name="Group 697" transform="translate(11.446 29.585)">
                    <path id="Path_2937" d="M222.952 262.716a.736.736 0 0 0 .38-.109.836.836 0 0 0 .262-1.095l-3.031-5.483a.726.726 0 0 0-1.032-.281.836.836 0 0 0-.262 1.095l3.031 5.483a.772.772 0 0 0 .652.39z" class="cls-10" data-name="Path 2937" transform="translate(-219.166 -255.636)"/>
                </g>
                <g id="Group_698" data-name="Group 698" transform="translate(24.229 53.871)">
                    <path id="Path_2938" d="M234.05 287.538a.768.768 0 0 0 .407-.127l4.995-3.457a.853.853 0 0 0 .226-1.113.722.722 0 0 0-1.041-.235l-5 3.457a.853.853 0 0 0-.226 1.113.773.773 0 0 0 .639.362z" class="cls-10" data-name="Path 2938" transform="translate(-233.293 -282.475)"/>
                </g>
                <g id="Group_699" data-name="Group 699" transform="translate(74.486 88.997)">
                    <path id="Path_2939" d="M292.269 328.584a.643.643 0 0 0 .335-.091.833.833 0 0 0 .335-1.077l-2.687-5.683a.723.723 0 0 0-1-.353.833.833 0 0 0-.335 1.077l2.687 5.682a.734.734 0 0 0 .665.445z" class="cls-10" data-name="Path 2939" transform="translate(-288.834 -321.294)"/>
                </g>
                <g id="Group_700" data-name="Group 700" transform="translate(10.665 62.585)">
                    <path id="Path_2940" d="M224.1 297.086a.724.724 0 0 0 .633-.38.833.833 0 0 0-.235-1.1l-5.049-3.375a.722.722 0 0 0-1.032.253.833.833 0 0 0 .235 1.1l5.049 3.375a.739.739 0 0 0 .399.127z" class="cls-10" data-name="Path 2940" transform="translate(-218.304 -292.106)"/>
                </g>
                <g id="Group_701" data-name="Group 701" transform="translate(26.76 68.071)">
                    <path id="Path_2941" d="M237.9 305.7a.72.72 0 0 0 .706.19.814.814 0 0 0 .525-.986l-1.565-6.144a.748.748 0 0 0-.923-.561.814.814 0 0 0-.525.986l1.565 6.144a.738.738 0 0 0 .217.371z" class="cls-10" data-name="Path 2941" transform="translate(-236.091 -298.168)"/>
                </g>
                <g id="Group_702" data-name="Group 702" transform="translate(7.269 9.619)">
                    <path id="Path_2942" d="M214.55 234.692l1.3 2.117a.752.752 0 0 0 .624.362.632.632 0 0 0 .407-.136.844.844 0 0 0 .217-1.113l-1.448-2.353c-.412.39-.783.761-1.1 1.123z" class="cls-10" data-name="Path 2942" transform="translate(-214.55 -233.57)"/>
                </g>
                <g id="Group_703" data-name="Group 703" transform="translate(1.559 22.884)">
                    <path id="Path_2943" d="M208.24 250.058l1.384 2.253a.715.715 0 0 0 1.041.226.832.832 0 0 0 .208-1.113l-1.964-3.194c-.217.588-.434 1.203-.669 1.828z" class="cls-10" data-name="Path 2943" transform="translate(-208.24 -248.23)"/>
                </g>
                <g id="Group_704" data-name="Group 704" transform="translate(65.702 109.925)">
                    <path id="Path_2944" d="M279.872 350.619a.723.723 0 0 0 .543-.244l4.126-4.6a.835.835 0 0 0-.018-1.131.709.709 0 0 0-1.059.027l-4.126 4.6a.835.835 0 0 0 .018 1.131.735.735 0 0 0 .516.217z" class="cls-10" data-name="Path 2944" transform="translate(-279.126 -344.422)"/>
                </g>
                <g id="Group_705" data-name="Group 705" transform="translate(38.266 125.986)">
                    <path id="Path_2945" d="M249.552 368.369a.723.723 0 0 0 .543-.244l4.126-4.6a.835.835 0 0 0-.018-1.131.709.709 0 0 0-1.059.027l-4.126 4.6a.835.835 0 0 0 .018 1.131.735.735 0 0 0 .516.217z" class="cls-10" data-name="Path 2945" transform="translate(-248.806 -362.172)"/>
                </g>
                <g id="Group_706" data-name="Group 706" transform="translate(29.314 118.178)">
                    <path id="Path_2946" d="M240.991 361.168a.826.826 0 0 0 .163-.606l-.742-6.316a.763.763 0 0 0-.842-.7.792.792 0 0 0-.652.9l.742 6.316a.763.763 0 0 0 .842.7.742.742 0 0 0 .489-.294z" class="cls-10" data-name="Path 2946" transform="translate(-238.913 -353.543)"/>
                </g>
                <g id="Group_707" data-name="Group 707" transform="translate(46.274 137.415)">
                    <path id="Path_2947" d="M258.4 381a.723.723 0 0 0 .543-.244l4.126-4.6a.835.835 0 0 0-.018-1.131.709.709 0 0 0-1.059.027l-4.126 4.6a.836.836 0 0 0 .018 1.131.7.7 0 0 0 .516.217z" class="cls-10" data-name="Path 2947" transform="translate(-257.656 -374.802)"/>
                </g>
                <g id="Group_708" data-name="Group 708" transform="translate(2.627 126.229)">
                    <path id="Path_2948" d="M209.42 362.44v1.611l4.651.416a.769.769 0 0 0 .814-.733.792.792 0 0 0-.688-.869z" class="cls-10" data-name="Path 2948" transform="translate(-209.42 -362.44)"/>
                </g>
                <g id="Group_709" data-name="Group 709" transform="translate(56.391 100.27)">
                    <path id="Path_2949" d="M269.582 339.949a.723.723 0 0 0 .543-.244l4.126-4.6a.835.835 0 0 0-.018-1.131.709.709 0 0 0-1.059.027l-4.126 4.6a.835.835 0 0 0 .018 1.131.735.735 0 0 0 .516.217z" class="cls-10" data-name="Path 2949" transform="translate(-268.836 -333.752)"/>
                </g>
                <g id="Group_710" data-name="Group 710" transform="translate(37.298 103.606)">
                    <path id="Path_2950" d="M247.74 338.3a.8.8 0 0 0 .262.561l4.561 4.1a.713.713 0 0 0 1.059-.1.847.847 0 0 0-.09-1.131l-4.56-4.1a.713.713 0 0 0-1.059.1.834.834 0 0 0-.173.57z" class="cls-10" data-name="Path 2950" transform="translate(-247.737 -337.439)"/>
                </g>
                <g id="Group_711" data-name="Group 711" transform="translate(11.845 119.893)">
                    <path id="Path_2951" d="M223.347 362.552a.705.705 0 0 0 .371-.109.829.829 0 0 0 .271-1.095l-2.989-5.51a.721.721 0 0 0-1.023-.29.829.829 0 0 0-.271 1.095l2.986 5.511a.744.744 0 0 0 .655.398z" class="cls-10" data-name="Path 2951" transform="translate(-219.607 -355.438)"/>
                </g>
                <g id="Group_712" data-name="Group 712" transform="translate(9.674 103.371)">
                    <path id="Path_2952" d="M217.961 344.437a.744.744 0 0 0 .67-.434l2.733-5.655a.821.821 0 0 0-.326-1.077.729.729 0 0 0-1.013.344l-2.733 5.655a.821.821 0 0 0 .326 1.077.675.675 0 0 0 .343.09z" class="cls-10" data-name="Path 2952" transform="translate(-217.208 -337.179)"/>
                </g>
                <g id="Group_713" data-name="Group 713" transform="translate(17.818 39.121)">
                    <path id="Path_2953" d="M226.961 273.427a.76.76 0 0 0 .67-.434l2.733-5.655a.821.821 0 0 0-.326-1.077.736.736 0 0 0-1.013.344l-2.733 5.655a.821.821 0 0 0 .326 1.077.675.675 0 0 0 .343.09z" class="cls-10" data-name="Path 2953" transform="translate(-226.208 -266.174)"/>
                </g>
                <g id="Group_714" data-name="Group 714" transform="translate(13.709 14.771)">
                    <path id="Path_2954" d="M223.543 247.124a.9.9 0 0 0 .145-.018.808.808 0 0 0 .6-.941l-1.131-6.253a.755.755 0 0 0-.878-.633.808.808 0 0 0-.6.941l1.131 6.253a.762.762 0 0 0 .733.651z" class="cls-10" data-name="Path 2954" transform="translate(-221.667 -239.264)"/>
                </g>
                <g id="Group_715" data-name="Group 715" transform="translate(0 36.343)">
                    <path id="Path_2955" d="M208.393 270.964a.908.908 0 0 0 .145-.018.808.808 0 0 0 .6-.941L208 263.752a.755.755 0 0 0-.878-.633.808.808 0 0 0-.6.941l1.131 6.253a.754.754 0 0 0 .74.651z" class="cls-10" data-name="Path 2955" transform="translate(-206.517 -263.104)"/>
                </g>
                <g id="Group_716" data-name="Group 716" transform="translate(23.454 20.255)">
                    <path id="Path_2956" d="M234.313 253.184a.9.9 0 0 0 .145-.018.808.808 0 0 0 .6-.941l-1.131-6.253a.755.755 0 0 0-.878-.633.808.808 0 0 0-.6.941l1.131 6.253a.754.754 0 0 0 .733.651z" class="cls-10" data-name="Path 2956" transform="translate(-232.437 -245.324)"/>
                </g>
                <g id="Group_717" data-name="Group 717" transform="translate(20.272)">
                    <path id="Path_2957" d="M229.508 229.283a.651.651 0 0 0 .416-.027.773.773 0 0 0 .48-.57l1.258-5.746c-.588.335-1.176.67-1.764 1.013l-.959 4.361a.819.819 0 0 0 .569.969z" class="cls-10" data-name="Path 2957" transform="translate(-228.92 -222.94)"/>
                </g>
                <g id="Group_718" data-name="Group 718" transform="translate(2.943 46.893)">
                    <path id="Path_2958" d="M210.521 281.737a.756.756 0 0 0 .633-.371l3.194-5.375a.826.826 0 0 0-.235-1.1.719.719 0 0 0-1.032.244l-3.194 5.375a.826.826 0 0 0 .235 1.1.634.634 0 0 0 .399.127z" class="cls-10" data-name="Path 2958" transform="translate(-209.769 -274.763)"/>
                </g>
                <g id="Group_719" data-name="Group 719" transform="translate(21.13 104.525)">
                    <path id="Path_2959" d="M233.734 345.554a.844.844 0 0 0 .127-.9l-2.561-5.746a.736.736 0 0 0-1-.38.826.826 0 0 0-.353 1.068l2.561 5.746a.736.736 0 0 0 1 .38.626.626 0 0 0 .226-.168z" class="cls-10" data-name="Path 2959" transform="translate(-229.868 -338.454)"/>
                </g>
                <g id="Group_720" data-name="Group 720" transform="translate(77.142 120.827)">
                    <path id="Path_2960" d="M292.394 358.063l5.013.869c0-.534-.009-1.077-.018-1.629l-4.75-.823a.762.762 0 0 0-.86.661.793.793 0 0 0 .615.922z" class="cls-10" data-name="Path 2960" transform="translate(-291.77 -356.47)"/>
                </g>
                <g id="Group_721" data-name="Group 721" transform="translate(78.669 106.148)">
                    <path id="Path_2961" d="M294.084 341.842l3.339.579c-.009-.543-.009-1.086-.018-1.629l-3.077-.534a.755.755 0 0 0-.86.661.791.791 0 0 0 .616.923z" class="cls-10" data-name="Path 2961" transform="translate(-293.457 -340.248)"/>
                </g>
                <g id="Group_722" data-name="Group 722" transform="translate(4.944 87.418)">
                    <path id="Path_2962" d="M212.731 327.078a.75.75 0 0 0 .7-.507l2.172-5.927a.816.816 0 0 0-.425-1.041.73.73 0 0 0-.968.452l-2.172 5.927a.816.816 0 0 0 .425 1.041.727.727 0 0 0 .268.055z" class="cls-10" data-name="Path 2962" transform="translate(-211.981 -319.549)"/>
                </g>
            </g>
            <g id="Group_726" data-name="Group 726" transform="translate(28.345 121.331)">
                <g id="Group_725" data-name="Group 725">
                    <g id="Group_724" data-name="Group 724">
                        <path id="Path_2963" d="M209.77 304.56c1.412-5.818 3.176-12.288 4.932-17.862 0-.009.009-.018.009-.036a170.435 170.435 0 0 1 1.611-4.859l.027-.081c.163-.471.326-.932.5-1.375a.709.709 0 0 0 .036-.235.658.658 0 0 0-.434-.615.664.664 0 0 0-.851.4c-1.8 4.9-3.927 11.962-5.746 18.884q-.043 2.875-.084 5.779z" class="cls-10" data-name="Path 2963" transform="translate(-209.77 -279.455)"/>
                    </g>
                </g>
            </g>
            <g id="Group_736" data-name="Group 736" transform="translate(45.292)">
                <path id="Path_2964" d="M233.152 179.42s-5.221-5.755-3.248-12.46 7.366-6.624 7.366-6.624 3.149-7.121 8.506-7.357 10.415-9.754 15.292-7.167-.525 8.225-.525 8.225 8.352-8.813 11.112-6.225-3.828 9.519-3.828 9.519 7.022-4.931 9.329-3.058-5.5 9.99-5.5 9.99 5.049 9.1-.036 13.193z" class="cls-5" data-name="Path 2964" transform="translate(-228.59 -145.368)"/>
                <g id="Group_729" data-name="Group 729" transform="translate(39.779 33.752)">
                    <path id="Path_2965" d="M273.745 184.9s3.339-4.452 5.827-.769-1.032 14.559-7.112 11.908z" class="cls-8" data-name="Path 2965" transform="translate(-272.46 -182.668)"/>
                    <g id="Group_727" data-name="Group 727" transform="translate(.824 3.905)">
                        <path id="Path_2966" d="M273.877 193.079a.513.513 0 0 0 .5-.371 7.928 7.928 0 0 1 4.461-4.732.513.513 0 1 0-.362-.959 8.851 8.851 0 0 0-5.085 5.42.516.516 0 0 0 .353.633c.042 0 .087.009.133.009z" class="cls-9" data-name="Path 2966" transform="translate(-273.37 -186.984)"/>
                    </g>
                    <g id="Group_728" data-name="Group 728" transform="translate(2.624 5.91)">
                        <path id="Path_2967" d="M277.577 191.6a.531.531 0 0 0 .28-.081.521.521 0 0 0 .154-.715 4.769 4.769 0 0 0-1.927-1.556.515.515 0 0 0-.416.941 3.631 3.631 0 0 1 1.484 1.176.485.485 0 0 0 .425.235z" class="cls-9" data-name="Path 2967" transform="translate(-275.36 -189.2)"/>
                    </g>
                </g>
                <g id="Group_733" data-name="Group 733" transform="translate(0 33.752)">
                    <path id="Path_2968" d="M235.133 184.9s-3.339-4.452-5.827-.769 1.032 14.559 7.112 11.908z" class="cls-8" data-name="Path 2968" transform="translate(-228.499 -182.668)"/>
                    <g id="Group_730" data-name="Group 730" transform="translate(1.299 3.905)">
                        <path id="Path_2969" d="M235.224 193.079a.513.513 0 0 1-.5-.371 7.928 7.928 0 0 0-4.461-4.732.513.513 0 1 1 .362-.959 8.851 8.851 0 0 1 5.085 5.42.516.516 0 0 1-.353.633c-.034 0-.079.009-.133.009z" class="cls-9" data-name="Path 2969" transform="translate(-229.934 -186.984)"/>
                    </g>
                    <g id="Group_732" data-name="Group 732" transform="translate(2.562 5.91)">
                        <g id="Group_731" data-name="Group 731">
                            <path id="Path_2970" d="M231.846 191.6a.53.53 0 0 1-.281-.081.521.521 0 0 1-.154-.715 4.769 4.769 0 0 1 1.927-1.556.515.515 0 0 1 .416.941 3.63 3.63 0 0 0-1.484 1.176.485.485 0 0 1-.424.235z" class="cls-9" data-name="Path 2970" transform="translate(-231.33 -189.2)"/>
                        </g>
                    </g>
                </g>
                <path id="Path_2971" d="M245.77 207.63v10.822s3.23 5.511 7.592 5.882 8.234-4.741 8.234-4.741v-11.2z" class="cls-6" data-name="Path 2971" transform="translate(-230.142 -151.291)"/>
                <path id="Path_2972" d="M245.77 207.63v4.8c2.932 3.248 8.126 4.063 15.826 2.923v-6.963z" class="cls-8" data-name="Path 2972" transform="translate(-230.142 -151.291)"/>
                <path id="Path_2973" d="M233.169 175.5a104.228 104.228 0 0 0 1.4 13.663v.009a.055.055 0 0 0 .009.036v.009c.2 1.022.416 1.991.661 2.859.145.507.3 1.041.48 1.584 2.561 8.044 8.506 19.69 23.436 14.36 6.289-2.244 9.564-8.732 11.229-15.781.1-.416.19-.832.271-1.24.054-.262.109-.525.154-.778l.072-.38a.868.868 0 0 1 .027-.136v-.027a77.119 77.119 0 0 0 1.059-14.8 11.288 11.288 0 0 0-5.728-9.61c-9.411-5.339-19.337-3.348-25.879-.832a11.294 11.294 0 0 0-7.191 11.064z" class="cls-6" data-name="Path 2973" transform="translate(-228.942 -146.939)"/>
                <path id="Path_2974" d="M234.71 192.011v.009a.054.054 0 0 0 .009.036v.009c.1.353.624 2.28 1.14 4.443 2.561 8.044 8.506 19.69 23.436 14.36 6.289-2.244 9.564-8.732 11.229-15.781.1-.416.19-.832.271-1.24.054-.262.109-.525.154-.778l.072-.38a.863.863 0 0 1 .027-.136v-.027l-2.2-.443a16.716 16.716 0 0 1-2.488 5.782c-1.855-4.452-11.284-1.493-11.284-1.493l-.045.018a5.824 5.824 0 0 1-1.755.271 5.958 5.958 0 0 1-1.81-.29s-9.311-3.086-11.247 1.158a59.772 59.772 0 0 1-3.239-5.7l-2.271.181zm18.559 6.388c10.659-1.439 8.985 4.3 8.985 4.3a17.733 17.733 0 0 1-3 2.271 12.3 12.3 0 0 1-6.28 1.71c-1.638-.072-2.081.262-6.216-1.973a10.4 10.4 0 0 1-2.19-1.665c-.176-1.114-1.986-6.48 8.701-4.642z" class="cls-5" data-name="Path 2974" transform="translate(-229.089 -149.788)"/>
                <path id="Path_2975" d="M244.55 185.35c0 1.158.6 2.09 1.33 2.09s1.33-.932 1.33-2.09-.6-2.09-1.33-2.09-1.33.94-1.33 2.09z" class="cls-5" data-name="Path 2975" transform="translate(-230.026 -148.972)"/>
                <path id="Path_2976" d="M262.92 185.35c0 1.158.6 2.09 1.33 2.09s1.33-.932 1.33-2.09-.6-2.09-1.33-2.09-1.33.94-1.33 2.09z" class="cls-5" data-name="Path 2976" transform="translate(-231.773 -148.972)"/>
                <path id="Path_2977" d="M240.763 177.667s5.493-2.172 9.727-.344l-.425 2.353s-6.207-.525-9.338.742a4.049 4.049 0 0 1 .036-2.751z" class="cls-5" data-name="Path 2977" transform="translate(-229.641 -148.338)"/>
                <path id="Path_2978" d="M268.621 177.676s-5.538-2.19-9.791-.344l.425 2.371s6.253-.525 9.4.751a4.073 4.073 0 0 0-.034-2.778z" class="cls-5" data-name="Path 2978" transform="translate(-231.384 -148.338)"/>
                <g id="Group_735" data-name="Group 735" transform="translate(21.489 35.679)">
                    <g id="Group_734" data-name="Group 734">
                        <path id="Path_2979" d="M254.43 194.844a5.54 5.54 0 0 1-1.864-.389.513.513 0 1 1 .389-.95 3.129 3.129 0 0 0 2.063.2.565.565 0 0 0 .253-.48 78.282 78.282 0 0 0-.308-7.872.513.513 0 1 1 1.022-.081 75.9 75.9 0 0 1 .308 8.062 1.553 1.553 0 0 1-.751 1.258 2.215 2.215 0 0 1-1.112.252z" class="cls-8" data-name="Path 2979" transform="translate(-252.247 -184.797)"/>
                    </g>
                </g>
                <path id="Path_2980" d="M260.63 200.23c-.389 1.964-1.683 5.574-6.054 5.574s-5.61-3.3-6.026-5.574z" class="cls-7" data-name="Path 2980" transform="translate(-230.406 -150.587)"/>
                <path id="Path_2981" d="M233.159 175.5a104.228 104.228 0 0 0 1.4 13.663l2.3-.163s-.561-3.547-.814-5.863-.7-6.633 1.276-7.176.814-5.465 3.556-7.6 8.868-2.733 12.9-.244 8.6-.19 10.451.244 4.4 3 3.71 5.393 1.366 3.855 1.864 6.334-1.095 9.166-1.095 9.166l2.2.443a77.2 77.2 0 0 0 1.068-14.8 11.277 11.277 0 0 0-5.728-9.61c-9.411-5.339-19.337-3.348-25.879-.832a11.277 11.277 0 0 0-7.209 11.045z" class="cls-5" data-name="Path 2981" transform="translate(-228.941 -146.941)"/>
            </g>
        </g>
        <g id="Group_772" data-name="Group 772" transform="translate(200.06 205.191)">
            <g id="Group_770" data-name="Group 770" transform="translate(46.796)">
                <g id="Group_769" data-name="Group 769">
                    <g id="Group_739" data-name="Group 739" transform="translate(0 77.003)">
                        <g id="Group_738" data-name="Group 738">
                            <path id="Path_2982" d="M331.284 304.5c-1.393 12.74-9.718 41.207-15.473 46.781-7.5 7.257-32.177 22.54-45.035 30.376-2.316 1.412 8.578 10.831 8.578 10.831s34.131-14.6 47.171-26.105c3.692-3.258 11.175-13.528 19.626-33.082 2.561-5.927 8.777-17.889 8.451-25.689-.379-8.971-14.631-7.496-23.318-3.112z" class="cls-3" data-name="Path 2982" transform="translate(-270.453 -301.028)"/>
                        </g>
                    </g>
                    <path id="Path_2983" d="M306.219 385.76s-9.284 3.529-12.578 7.4-7.637 7.167-6.578 8.7 5.873-2.941 5.873-2.941 1.321 4.9 5.99 5.438 13.51-8.614 13.51-8.614z" class="cls-6" data-name="Path 2983" transform="translate(-272.018 -232.086)"/>
                    <g id="Group_767" data-name="Group 767" transform="translate(47.557)">
                        <g id="Group_746" data-name="Group 746" transform="translate(0 63.911)">
                            <path id="Path_2984" d="M401.29 338.7c0 .805-.009 1.765-.018 2.841s-.036 2.28-.072 3.592c-.027.9-.054 1.855-.09 2.85-.027.841-.063 1.71-.1 2.615-.036.923-.081 1.873-.127 2.859-.642 13.347-2.208 31.77-5.646 46.546H323.01c2.407-10.732 6.1-27.671 9.022-49.641.127-.923.244-1.855.362-2.8a1597.434 1597.434 0 0 0 .543-4.388c.045-.425.1-.851.145-1.267.136-1.185.253-2.353.362-3.493.09-.95.172-1.891.253-2.814 1.24-14.767.805-25.843 2.579-32.476 2.072-7.718 26.241-16.568 26.241-16.568l15.138.8s14.442 4.714 22.16 11.492 1.267 27 1.457 38.484c.018.389.018.85.018 1.368z" class="cls-2" data-name="Path 2984" transform="translate(-323.01 -286.56)"/>
                            <g id="Group_740" data-name="Group 740" transform="translate(10.433 49.035)">
                                <path id="Path_2985" d="M402.369 346.695a168.958 168.958 0 0 1-20.142 1.113 298.828 298.828 0 0 1-47.686-4.244c.09-.95.172-1.891.253-2.814 5.818 1.032 39.461 6.6 67.584 3.1.009.809.009 1.768-.009 2.845z" class="cls-1" data-name="Path 2985" transform="translate(-334.54 -340.75)"/>
                            </g>
                            <g id="Group_741" data-name="Group 741" transform="translate(9.736 55.35)">
                                <path id="Path_2986" d="M402.223 350.951c-.027.9-.054 1.855-.091 2.85a170.177 170.177 0 0 1-19.979 1.095 299.262 299.262 0 0 1-48.383-4.362l.19-1.538c.045-.425.1-.851.145-1.267 3.348.607 38.728 6.851 68.118 3.222z" class="cls-1" data-name="Path 2986" transform="translate(-333.77 -347.73)"/>
                            </g>
                            <g id="Group_742" data-name="Group 742" transform="translate(9.031 61.006)">
                                <path id="Path_2987" d="M401.968 357.02c-.036.923-.081 1.873-.127 2.859a167.606 167.606 0 0 1-20.848 1.194 298.681 298.681 0 0 1-48-4.3c.127-.923.244-1.855.362-2.8 5.209.927 39.965 6.793 68.613 3.047z" class="cls-1" data-name="Path 2987" transform="translate(-332.99 -353.98)"/>
                            </g>
                            <g id="Group_743" data-name="Group 743" transform="translate(42.663 5.293)">
                                <path id="Path_2988" d="M371.381 301.64c7.528 0 14.478-8 14.776-8.352a.532.532 0 1 0-.805-.7c-.072.081-7.348 8.47-14.623 7.963a.535.535 0 0 0-.081 1.068c.252.012.498.021.733.021z" class="cls-3" data-name="Path 2988" transform="translate(-370.159 -292.41)"/>
                            </g>
                            <g id="Group_744" data-name="Group 744" transform="translate(21.839 66.82)">
                                <path id="Path_2989" d="M375.725 398.115a.531.531 0 0 0 .054-1.059c-19.446-2.235-27.508-35.9-27.589-36.24a.529.529 0 1 0-1.032.235c.326 1.421 8.316 34.738 28.5 37.063z" class="cls-3" data-name="Path 2989" transform="translate(-347.146 -360.406)"/>
                            </g>
                            <g id="Group_745" data-name="Group 745" transform="translate(29.999 77.034)">
                                <path id="Path_2990" d="M368.837 389a.527.527 0 0 0 .452-.253.537.537 0 0 0-.172-.733c-10.343-6.379-11.881-15.781-11.9-15.871a.531.531 0 0 0-1.05.163c.063.407 1.611 9.972 12.388 16.622a.588.588 0 0 0 .282.072z" class="cls-3" data-name="Path 2990" transform="translate(-356.163 -371.693)"/>
                            </g>
                        </g>
                        <g id="Group_766" data-name="Group 766" transform="translate(22.441)">
                            <circle id="Ellipse_4" cx="21.31" cy="21.31" r="21.31" class="cls-5" data-name="Ellipse 4" transform="translate(4.959 7.602)"/>
                            <path id="Path_2991" d="M353.122 241.022s-6.035-1.665-5.239-7.519c.679-4.986 6.533-1.755 6.017-5.646s-1.656-7.438 3.384-8.415c4.407-.851 4.479 2.172 10.27-2.217 6.841-5.176 12.089 6.814 18.2 7.176 9 .534 10.134 5.619 11.021 9.691s-2.579 6.931-2.579 6.931z" class="cls-5" data-name="Path 2991" transform="translate(-347.81 -215.929)"/>
                            <g id="Group_750" data-name="Group 750" transform="translate(1.848 32.623)">
                                <path id="Path_2992" d="M356.546 254.233s-3.375-4.5-5.882-.778 1.041 14.713 7.185 12.026z" class="cls-8" data-name="Path 2992" transform="translate(-349.853 -251.982)"/>
                                <g id="Group_747" data-name="Group 747" transform="translate(1.312 3.942)">
                                    <path id="Path_2993" d="M356.639 262.5a.521.521 0 0 1-.5-.38 7.991 7.991 0 0 0-4.506-4.778.515.515 0 0 1-.3-.67.508.508 0 0 1 .67-.3 8.971 8.971 0 0 1 5.14 5.474.516.516 0 0 1-.362.642c-.043.005-.097.012-.142.012z" class="cls-9" data-name="Path 2993" transform="translate(-351.303 -256.339)"/>
                                </g>
                                <g id="Group_749" data-name="Group 749" transform="translate(2.584 5.979)">
                                    <g id="Group_748" data-name="Group 748">
                                        <path id="Path_2994" d="M353.226 261.006a.531.531 0 0 1-.281-.081.515.515 0 0 1-.154-.715 4.866 4.866 0 0 1 1.945-1.574.52.52 0 0 1 .425.95 3.837 3.837 0 0 0-1.5 1.185.511.511 0 0 1-.435.235z" class="cls-9" data-name="Path 2994" transform="translate(-352.708 -258.59)"/>
                                    </g>
                                </g>
                            </g>
                            <path id="Path_2995" d="M382.619 277.2v10.931s-4.5 4.814-8.9 5.194-7.085-4.85-7.085-4.85v-10.506z" class="cls-6" data-name="Path 2995" transform="translate(-349.6 -221.758)"/>
                            <path id="Path_2996" d="M382.62 277.2v4.85c-2.959 3.285-8.207 4.1-15.98 2.959v-7.04z" class="cls-8" data-name="Path 2996" transform="translate(-349.601 -221.758)"/>
                            <path id="Path_2997" d="M392.914 244.737a105.2 105.2 0 0 1-1.421 13.808 34.104 34.104 0 0 1-.688 2.95c-2.3 8.053-8.053 21.862-24.16 16.116-7.112-2.543-10.415-10.46-11.881-18.523a78.106 78.106 0 0 1-1.077-14.957 11.418 11.418 0 0 1 5.791-9.709c9.51-5.393 19.536-3.384 26.141-.841a11.39 11.39 0 0 1 7.295 11.156z" class="cls-6" data-name="Path 2997" transform="translate(-348.368 -217.364)"/>
                            <g id="Group_757" data-name="Group 757" transform="translate(5.963 32.437)">
                                <g id="Group_756" data-name="Group 756">
                                    <g id="Group_751" data-name="Group 751" transform="translate(19.246 .374)">
                                        <path id="Path_2998" d="M375.679 254.47v.86a6.441 6.441 0 0 0 6.434 6.452h.208a5.757 5.757 0 0 0 4-1.774 6.321 6.321 0 0 0 1.855-4.533v-1.023a2.2 2.2 0 0 0-.154-.805 2.125 2.125 0 0 0-.516-.8 2.264 2.264 0 0 0-1.6-.661h-7.972a2.252 2.252 0 0 0-2.045 1.294 2.09 2.09 0 0 0-.217.914.254.254 0 0 1 .007.076zm.941 0a1.332 1.332 0 0 1 1.33-1.33h7.972a1.327 1.327 0 0 1 1.33 1.33v1.022a5.378 5.378 0 0 1-1.574 3.855 4.932 4.932 0 0 1-3.366 1.5h-.19a5.5 5.5 0 0 1-5.493-5.511v-.869z" class="cls-5" data-name="Path 2998" transform="translate(-375.67 -252.19)"/>
                                    </g>
                                    <g id="Group_752" data-name="Group 752" transform="translate(3.294 .365)">
                                        <path id="Path_2999" d="M358.04 254.469v.86a6.441 6.441 0 0 0 6.434 6.452h.217a5.774 5.774 0 0 0 4-1.774 6.329 6.329 0 0 0 1.864-4.533v-1.068a2.172 2.172 0 0 0-.19-.869 2.274 2.274 0 0 0-2.072-1.357h-7.973a2.239 2.239 0 0 0-2.181 1.656 2.006 2.006 0 0 0-.099.633zm.941 0a1.332 1.332 0 0 1 1.33-1.33h7.972a1.326 1.326 0 0 1 1.33 1.33v1.022a5.416 5.416 0 0 1-1.574 3.855 4.915 4.915 0 0 1-3.366 1.5h-.19a5.406 5.406 0 0 1-3.855-1.593 5.481 5.481 0 0 1-1.628-3.915v-.869z" class="cls-5" data-name="Path 2999" transform="translate(-358.04 -252.18)"/>
                                    </g>
                                    <g id="Group_753" data-name="Group 753" transform="translate(31.236)">
                                        <path id="Path_3000" d="M395.127 251.789a11.235 11.235 0 0 0-5.4 1.041 8.551 8.551 0 0 0-.805.489l.443.8c.009 0 .633-.38.878-.489a9.846 9.846 0 0 1 4.9-.9v-.932z" class="cls-5" data-name="Path 3000" transform="translate(-388.92 -251.777)"/>
                                    </g>
                                    <g id="Group_754" data-name="Group 754" transform="translate(14.795 1.333)">
                                        <path id="Path_3001" d="M375.844 254.607l.308-.887a9.689 9.689 0 0 0-2.823-.471 6.169 6.169 0 0 0-2.579.5l.407.841a5.613 5.613 0 0 1 2.172-.4 9.029 9.029 0 0 1 2.515.417z" class="cls-5" data-name="Path 3001" transform="translate(-370.75 -253.25)"/>
                                    </g>
                                    <g id="Group_755" data-name="Group 755" transform="translate(0 .238)">
                                        <path id="Path_3002" d="M354.4 252.04v.941a12.357 12.357 0 0 1 3.773 1.041l.416-.841a12.658 12.658 0 0 0-4.189-1.141z" class="cls-5" data-name="Path 3002" transform="translate(-354.4 -252.04)"/>
                                    </g>
                                </g>
                            </g>
                            <path id="Path_3003" d="M365.918 255.828c0 1.167-.6 2.108-1.339 2.108s-1.339-.95-1.339-2.108.6-2.108 1.339-2.108 1.339.941 1.339 2.108z" class="cls-5" data-name="Path 3003" transform="translate(-349.278 -219.524)"/>
                            <path id="Path_3004" d="M383.3 255.828c0 1.167-.6 2.108-1.339 2.108s-1.339-.95-1.339-2.108.6-2.108 1.339-2.108 1.339.941 1.339 2.108z" class="cls-5" data-name="Path 3004" transform="translate(-350.931 -219.524)"/>
                            <path id="Path_3005" d="M359.874 248.765s5.592-2.208 9.9-.353l-.362 2a18.17 18.17 0 0 0-9.23.661c-.29-.924-.682-1.367-.308-2.308z" class="cls-5" data-name="Path 3005" transform="translate(-348.943 -218.949)"/>
                            <path id="Path_3006" d="M387.119 248.765s-5.592-2.208-9.9-.353l.362 2a18.17 18.17 0 0 1 9.23.661c.281-.924.67-1.367.308-2.308z" class="cls-5" data-name="Path 3006" transform="translate(-350.608 -218.949)"/>
                            <g id="Group_759" data-name="Group 759" transform="translate(22.058 34.999)">
                                <g id="Group_758" data-name="Group 758">
                                    <path id="Path_3007" d="M374.108 264.762a5.55 5.55 0 0 0 1.882-.4.519.519 0 0 0-.4-.959 3.13 3.13 0 0 1-2.081.2.559.559 0 0 1-.253-.48 76.647 76.647 0 0 1 .317-7.954.518.518 0 0 0-1.032-.09 77.448 77.448 0 0 0-.308 8.144 1.594 1.594 0 0 0 .751 1.267 2.171 2.171 0 0 0 1.124.272z" class="cls-8" data-name="Path 3007" transform="translate(-372.187 -254.607)"/>
                                </g>
                            </g>
                            <path id="Path_3008" d="M367.2 268.74c.425 2.135 1.837 6.063 6.587 6.063s6.1-3.592 6.56-6.063z" class="cls-7" data-name="Path 3008" transform="translate(-349.655 -220.953)"/>
                            <g id="Group_760" data-name="Group 760" transform="translate(21.385 54.893)">
                                <path id="Path_3009" d="M374.128 278.264a5.494 5.494 0 0 0 2.534-.706.52.52 0 0 0-.543-.887 4.375 4.375 0 0 1-1.991.561 4.163 4.163 0 0 1-1.891-.561.52.52 0 0 0-.543.887 5.357 5.357 0 0 0 2.434.706z" class="cls-8" data-name="Path 3009" transform="translate(-371.444 -276.594)"/>
                            </g>
                            <path id="Path_3010" d="M356.378 255.7a21.9 21.9 0 0 1-.5-6.325c.507-2.506 2.579-3.981 1.891-6.4s1.864-5.022 3.746-5.456 6.28.5 10.605-1.556c4.126-1.964 11.311-.561 12.478 2.09 1.412 3.212-.507 3.511 3.357 6.986 1.538 1.384-.29 4.977-.552 7.311a15.316 15.316 0 0 0-.09 2.751l.018.588h4.624c.507-3.619.805-7.619.959-10.967a11.382 11.382 0 0 0-7.284-11.157c-6.605-2.543-16.631-4.551-26.142.842a11.39 11.39 0 0 0-5.782 9.709 82.542 82.542 0 0 0 .561 11.573h2.108z" class="cls-5" data-name="Path 3010" transform="translate(-348.369 -217.363)"/>
                            <g id="Group_765" data-name="Group 765" transform="translate(41.531 32.61)">
                                <path id="Path_3011" d="M393.71 259.7a19.3 19.3 0 0 1 .28-3.61c.29-1.629.76-3.1 2.425-3.782a2.846 2.846 0 0 1 3.791.95c2.506 3.719-.29 15.3-6.434 12.614z" class="cls-6" data-name="Path 3011" transform="translate(-393.707 -251.968)"/>
                                <g id="Group_762" data-name="Group 762" transform="translate(.653 3.522)">
                                    <g id="Group_761" data-name="Group 761">
                                        <path id="Path_3012" d="M395.045 262.864a.52.52 0 0 0 .416-.471c.271-3.511 3.448-5.547 3.484-5.574a.518.518 0 1 0-.552-.878 8.938 8.938 0 0 0-3.963 6.37.525.525 0 0 0 .48.561.356.356 0 0 0 .135-.008z" class="cls-8" data-name="Path 3012" transform="translate(-394.429 -255.861)"/>
                                    </g>
                                </g>
                                <g id="Group_764" data-name="Group 764" transform="translate(1.826 6.114)">
                                    <g id="Group_763" data-name="Group 763">
                                        <path id="Path_3013" d="M398.308 260.766a.564.564 0 0 0 .262-.136.516.516 0 0 0 .009-.733 4.772 4.772 0 0 0-2.217-1.158.52.52 0 0 0-.235 1.013 3.655 3.655 0 0 1 1.7.869.517.517 0 0 0 .481.145z" class="cls-8" data-name="Path 3013" transform="translate(-395.725 -258.726)"/>
                                    </g>
                                </g>
                            </g>
                        </g>
                    </g>
                    <g id="Group_768" data-name="Group 768" transform="translate(31.87 73.82)">
                        <path id="Path_3014" d="M395.107 297.51c-7.592 11.5-36.629 51.27-43.18 55.884-8.533 6.017-31.788 14.568-45.135 23.481-4.533 3.031 6.18 11.6 6.18 11.6s32.548-9.148 47.2-18.5c4.144-2.642 21.391-19.925 32.385-35.245 3.764-5.248 9.89-12.541 10.777-20.3 1.021-8.921-1.784-13.699-8.227-16.92z" class="cls-3" data-name="Path 3014" transform="translate(-305.674 -297.51)"/>
                    </g>
                </g>
            </g>
            <g id="Group_771" data-name="Group 771" transform="translate(0 103.3)">
                <path id="Path_3015" d="M331.169 410.732H240.7a2.091 2.091 0 0 1-2.09-2.09v-7.212a2.091 2.091 0 0 1 2.09-2.09h90.468a2.091 2.091 0 0 1 2.09 2.09v7.212a2.1 2.1 0 0 1-2.089 2.09z" class="cls-11" data-name="Path 3015" transform="translate(-220.628 -336.678)"/>
                <path id="Path_3016" d="M236.728 404.145l-17.79-66.634a5.89 5.89 0 0 1 5.692-7.411h39.153a5.891 5.891 0 0 1 5.674 4.3l19.59 69.747z" class="cls-5" data-name="Path 3016" transform="translate(-218.737 -330.091)"/>
                <path id="Path_3017" d="M274.194 334.4l19.427 69.177h4.47L278.664 334.4a5.907 5.907 0 0 0-5.673-4.307h-4.47a5.9 5.9 0 0 1 5.673 4.307z" class="cls-11" data-name="Path 3017" transform="translate(-223.473 -330.09)"/>
                <path id="Path_3018" d="M261.974 373.474c1.013 4.4-1.719 7.954-6.117 7.954a10.623 10.623 0 0 1-9.8-7.954c-1.013-4.4 1.719-7.954 6.117-7.954a10.612 10.612 0 0 1 9.8 7.954z" class="cls-12" data-name="Path 3018" transform="translate(-221.316 -333.461)"/>
            </g>
        </g>
        <g id="Group_813" data-name="Group 813" transform="translate(41.585 103.06)">
            <g id="Group_791" data-name="Group 791" transform="translate(309.617 22.124)">
                <g id="Group_790" data-name="Group 790">
                    <g id="Group_773" data-name="Group 773" transform="translate(4.868)">
                        <path id="Path_3019" d="M397.122 139.454a5.972 5.972 0 1 1 5.972-5.972 5.978 5.978 0 0 1-5.972 5.972zm0-10.08a4.1 4.1 0 1 0 4.1 4.1 4.1 4.1 0 0 0-4.1-4.1z" class="cls-3" data-name="Path 3019" transform="translate(-391.15 -127.51)"/>
                    </g>
                    <g id="Group_774" data-name="Group 774" transform="translate(26.377 20.957)">
                        <path id="Path_3020" d="M420.892 162.614a5.972 5.972 0 1 1 5.972-5.972 5.978 5.978 0 0 1-5.972 5.972zm0-10.071a4.1 4.1 0 1 0 4.1 4.1 4.1 4.1 0 0 0-4.1-4.1z" class="cls-2" data-name="Path 3020" transform="translate(-414.92 -150.67)"/>
                    </g>
                    <g id="Group_781" data-name="Group 781" transform="translate(32.991 46.302)">
                        <g id="Group_777" data-name="Group 777" transform="translate(5.8)">
                            <g id="Group_775" data-name="Group 775">
                                <path id="Path_3021" d="M429.581 184.7a.94.94 0 0 1-.941-.941v-4.135a.941.941 0 0 1 1.882 0v4.135a.946.946 0 0 1-.941.941z" class="cls-3" data-name="Path 3021" transform="translate(-428.64 -178.68)"/>
                            </g>
                            <g id="Group_776" data-name="Group 776" transform="translate(0 7.23)">
                                <path id="Path_3022" d="M429.581 192.687a.94.94 0 0 1-.941-.941v-4.135a.941.941 0 1 1 1.882 0v4.135a.946.946 0 0 1-.941.941z" class="cls-3" data-name="Path 3022" transform="translate(-428.64 -186.67)"/>
                            </g>
                        </g>
                        <g id="Group_780" data-name="Group 780" transform="translate(0 5.683)">
                            <g id="Group_778" data-name="Group 778" transform="translate(7.89)">
                                <path id="Path_3023" d="M435.6 186.842h-3.71a.941.941 0 1 1 0-1.882h3.71a.941.941 0 1 1 0 1.882z" class="cls-3" data-name="Path 3023" transform="translate(-430.95 -184.96)"/>
                            </g>
                            <g id="Group_779" data-name="Group 779">
                                <path id="Path_3024" d="M426.881 186.842h-3.71a.941.941 0 1 1 0-1.882h3.71a.941.941 0 1 1 0 1.882z" class="cls-3" data-name="Path 3024" transform="translate(-422.23 -184.96)"/>
                            </g>
                        </g>
                    </g>
                    <g id="Group_789" data-name="Group 789" transform="translate(0 23.137)">
                        <g id="Group_788" data-name="Group 788">
                            <g id="Group_784" data-name="Group 784" transform="translate(5.791)">
                                <g id="Group_782" data-name="Group 782">
                                    <path id="Path_3025" d="M393.111 159.1a.94.94 0 0 1-.941-.941v-4.135a.941.941 0 0 1 1.882 0v4.135a.935.935 0 0 1-.941.941z" class="cls-4" data-name="Path 3025" transform="translate(-392.17 -153.08)"/>
                                </g>
                                <g id="Group_783" data-name="Group 783" transform="translate(0 7.239)">
                                    <path id="Path_3026" d="M393.111 167.1a.94.94 0 0 1-.941-.941v-4.135a.941.941 0 0 1 1.882 0v4.135a.94.94 0 0 1-.941.941z" class="cls-4" data-name="Path 3026" transform="translate(-392.17 -161.08)"/>
                                </g>
                            </g>
                            <g id="Group_787" data-name="Group 787" transform="translate(0 5.692)">
                                <g id="Group_785" data-name="Group 785" transform="translate(7.89)">
                                    <path id="Path_3027" d="M399.141 161.252h-3.71a.941.941 0 1 1 0-1.882h3.71a.94.94 0 0 1 .941.941.952.952 0 0 1-.941.941z" class="cls-4" data-name="Path 3027" transform="translate(-394.49 -159.37)"/>
                                </g>
                                <g id="Group_786" data-name="Group 786">
                                    <path id="Path_3028" d="M390.421 161.252h-3.71a.941.941 0 1 1 0-1.882h3.71a.94.94 0 0 1 .941.941.952.952 0 0 1-.941.941z" class="cls-4" data-name="Path 3028" transform="translate(-385.77 -159.37)"/>
                                </g>
                            </g>
                        </g>
                    </g>
                </g>
            </g>
            <g id="Group_810" data-name="Group 810">
                <g id="Group_809" data-name="Group 809">
                    <g id="Group_792" data-name="Group 792" transform="translate(43.162 .661)">
                        <path id="Path_3029" d="M91.3 109.762a5.972 5.972 0 1 1 5.972 5.972 5.978 5.978 0 0 1-5.972-5.972zm1.873 0a4.1 4.1 0 1 0 4.1-4.1 4.1 4.1 0 0 0-4.1 4.1z" class="cls-3" data-name="Path 3029" transform="translate(-91.3 -103.79)"/>
                    </g>
                    <g id="Group_793" data-name="Group 793" transform="translate(19.165 23.436)">
                        <path id="Path_3030" d="M64.78 134.932a5.972 5.972 0 1 1 5.972 5.972 5.978 5.978 0 0 1-5.972-5.972zm1.873 0a4.1 4.1 0 1 0 4.1-4.1 4.1 4.1 0 0 0-4.1 4.1z" class="cls-2" data-name="Path 3030" transform="translate(-64.78 -128.96)"/>
                    </g>
                    <g id="Group_800" data-name="Group 800" transform="translate(0 31.77)">
                        <g id="Group_796" data-name="Group 796" transform="translate(5.8)">
                            <g id="Group_794" data-name="Group 794">
                                <path id="Path_3031" d="M50.951 144.187a.94.94 0 0 0 .941-.941v-4.135a.941.941 0 0 0-1.882 0v4.135a.94.94 0 0 0 .941.941z" class="cls-3" data-name="Path 3031" transform="translate(-50.01 -138.17)"/>
                            </g>
                            <g id="Group_795" data-name="Group 795" transform="translate(0 7.239)">
                                <path id="Path_3032" d="M50.951 152.187a.94.94 0 0 0 .941-.941v-4.135a.941.941 0 0 0-1.882 0v4.135a.946.946 0 0 0 .941.941z" class="cls-3" data-name="Path 3032" transform="translate(-50.01 -146.17)"/>
                            </g>
                        </g>
                        <g id="Group_799" data-name="Group 799" transform="translate(0 5.692)">
                            <g id="Group_797" data-name="Group 797">
                                <path id="Path_3033" d="M44.541 146.342h3.71a.941.941 0 1 0 0-1.882h-3.71a.941.941 0 1 0 0 1.882z" class="cls-3" data-name="Path 3033" transform="translate(-43.6 -144.46)"/>
                            </g>
                            <g id="Group_798" data-name="Group 798" transform="translate(7.89)">
                                <path id="Path_3034" d="M53.261 146.342h3.71a.941.941 0 1 0 0-1.882h-3.71a.941.941 0 1 0 0 1.882z" class="cls-3" data-name="Path 3034" transform="translate(-52.32 -144.46)"/>
                            </g>
                        </g>
                    </g>
                    <g id="Group_808" data-name="Group 808" transform="translate(21.59)">
                        <g id="Group_807" data-name="Group 807">
                            <g id="Group_803" data-name="Group 803" transform="translate(5.809)">
                                <g id="Group_801" data-name="Group 801">
                                    <path id="Path_3035" d="M74.821 109.077a.94.94 0 0 0 .941-.941V104a.941.941 0 1 0-1.882 0v4.135a.935.935 0 0 0 .941.942z" class="cls-4" data-name="Path 3035" transform="translate(-73.88 -103.06)"/>
                                </g>
                                <g id="Group_802" data-name="Group 802" transform="translate(0 7.23)">
                                    <path id="Path_3036" d="M74.821 117.067a.94.94 0 0 0 .941-.941v-4.135a.941.941 0 1 0-1.882 0v4.135a.935.935 0 0 0 .941.941z" class="cls-4" data-name="Path 3036" transform="translate(-73.88 -111.05)"/>
                                </g>
                            </g>
                            <g id="Group_806" data-name="Group 806" transform="translate(0 5.683)">
                                <g id="Group_804" data-name="Group 804">
                                    <path id="Path_3037" d="M68.4 111.222h3.71a.941.941 0 1 0 0-1.882H68.4a.941.941 0 0 0 0 1.882z" class="cls-4" data-name="Path 3037" transform="translate(-67.46 -109.34)"/>
                                </g>
                                <g id="Group_805" data-name="Group 805" transform="translate(7.89)">
                                    <path id="Path_3038" d="M77.121 111.222h3.71a.941.941 0 1 0 0-1.882h-3.71a.941.941 0 0 0 0 1.882z" class="cls-4" data-name="Path 3038" transform="translate(-76.18 -109.34)"/>
                                </g>
                            </g>
                        </g>
                    </g>
                </g>
            </g>
            <g id="Group_812" data-name="Group 812" transform="translate(224.596 8.623)">
                <path id="Path_3039" d="M340.872 116.942v18.2a4.354 4.354 0 0 1-4.352 4.352h-33.037l-9.972 3.574a1.269 1.269 0 0 1-1.611-1.656l3.773-9.745v-14.725a4.356 4.356 0 0 1 4.361-4.352h36.493a4.346 4.346 0 0 1 4.345 4.352z" class="cls-2" data-name="Path 3039" transform="translate(-291.81 -112.59)"/>
                <g id="Group_811" class="cls-13" data-name="Group 811" transform="translate(10.587 7.094)">
                    <path id="Path_3040" d="M335.017 122.837h-30.3a1.2 1.2 0 0 1-1.2-1.2 1.2 1.2 0 0 1 1.2-1.2h30.3a1.2 1.2 0 0 1 1.2 1.2 1.2 1.2 0 0 1-1.2 1.2z" class="cls-1" data-name="Path 3040" transform="translate(-303.51 -120.43)"/>
                    <path id="Path_3041" d="M335.017 128.187h-30.3a1.2 1.2 0 0 1-1.2-1.2 1.2 1.2 0 0 1 1.2-1.2h30.3a1.2 1.2 0 0 1 1.2 1.2 1.2 1.2 0 0 1-1.2 1.2z" class="cls-1" data-name="Path 3041" transform="translate(-303.51 -120.939)"/>
                    <path id="Path_3042" d="M335.017 133.537h-30.3a1.2 1.2 0 0 1-1.2-1.2 1.2 1.2 0 0 1 1.2-1.2h30.3a1.2 1.2 0 0 1 1.2 1.2 1.2 1.2 0 0 1-1.2 1.2z" class="cls-1" data-name="Path 3042" transform="translate(-303.51 -121.448)"/>
                </g>
            </g>
        </g>
        <g id="Group_814" data-name="Group 814" transform="translate(46.715 382.554)">
            <path id="Path_3043" d="M415.242 418.736v.651a6.8 6.8 0 0 1-6.8 6.8H56.066a6.793 6.793 0 0 1-6.8-6.8v-.651a6.8 6.8 0 0 1 6.8-6.8h352.381a6.8 6.8 0 0 1 6.795 6.8z" class="cls-4" data-name="Path 3043" transform="translate(-49.27 -411.94)"/>
            <path id="Path_3044" d="M415.242 418.736v.326H49.27v-.326a6.8 6.8 0 0 1 6.8-6.8h352.377a6.8 6.8 0 0 1 6.795 6.8z" class="cls-3" data-name="Path 3044" transform="translate(-49.27 -411.94)"/>
        </g>
    </g>
</svg>
