<?xml version="1.0" encoding="utf-8"?>
<!-- Generator: Adobe Illustrator 23.1.0, SVG Export Plug-In . SVG Version: 6.00 Build 0)  -->
<svg version="1.1" id="Layer_1" xmlns="http://www.w3.org/2000/svg" xmlns:xlink="http://www.w3.org/1999/xlink" x="0px" y="0px"
	 viewBox="0 0 116.7 21.1" style="enable-background:new 0 0 116.7 21.1;" xml:space="preserve">
<style type="text/css">
	.st0{fill:none;stroke:#006FF9;stroke-width:2;stroke-miterlimit:10;}
	.st1{fill:#FFFFFF;}
	.st2{fill:#006FF9;}
	.st3{fill:#CECEC2;}
	.st4{fill:#313129;}
	.st5{fill:none;}
	.st6{fill:#0036D4;}
	.st7{fill:#282828;}
	.st8{fill:none;stroke:#FFFFFF;stroke-width:0.5;stroke-miterlimit:10;}
	.st9{fill:none;stroke:#006FF9;stroke-width:0.25;stroke-miterlimit:10;}
	.st10{fill:none;stroke:#006FF9;stroke-width:0.5;stroke-miterlimit:10;}
	.st11{fill:none;stroke:#006FF9;stroke-width:0.5;stroke-linecap:round;stroke-miterlimit:10;}
	.st12{fill:none;stroke:#006FF9;stroke-linecap:round;stroke-miterlimit:10;}
	.st13{fill:#14182C;}
	.st14{opacity:0.14;}
	.st15{stroke:#C1C1C1;stroke-width:5.362;stroke-miterlimit:10;}
	.st16{fill:none;stroke:#C1C1C1;stroke-width:7;stroke-miterlimit:10;}
	.st17{fill:#C1C1C1;}
	.st18{opacity:0.5;fill:none;stroke:#FFFFFF;stroke-width:0.7051;stroke-miterlimit:10;}
	.st19{fill:none;stroke:#C1C1C1;stroke-width:5.362;stroke-miterlimit:10;}
	.st20{opacity:0.5;fill:none;stroke:#FFFFFF;stroke-width:0.583;stroke-linecap:round;stroke-linejoin:round;stroke-miterlimit:10;}
</style>
<g>
	<g>
		<rect class="st7" width="22.3" height="21.1"/>
		<g>
			<g>
				<polygon class="st1" points="16.4,2.3 12.8,10.8 12.8,2.3 9.4,2.3 2.3,18.8 5.8,18.8 9.5,10.2 9.5,18.8 12.9,18.8 19.9,2.3 				
					"/>
				<polygon class="st1" points="15.4,16.4 16.4,18.8 19.9,18.8 17.2,12.3 				"/>
				<polygon class="st1" points="2.3,7 2.3,15.2 5.8,7 				"/>
				<rect x="2.3" y="2.3" class="st1" width="3.5" height="3.5"/>
			</g>
		</g>
	</g>
	<g>
		<g>
			<path class="st7" d="M26.1,15.1v-9h1.6v9H26.1z"/>
			<path class="st7" d="M29.5,15.1V8.6H31v0.9c0.3-0.6,1-1.1,2-1.1c1.5,0,2.5,1,2.5,2.6v4h-1.5v-3.8c0-0.9-0.5-1.4-1.4-1.4
				c-0.9,0-1.5,0.6-1.5,1.5v3.7H29.5z"/>
			<path class="st7" d="M36.7,15.1v-9h1.5v5.2l2.4-2.8h1.8l-2.5,2.9l2.8,3.6H41l-2-2.6l-0.6,0.7v1.9H36.7z"/>
			<path class="st7" d="M43.4,15.1v-9h1.5v3.4c0.2-0.6,1-1.1,2.1-1.1c0.9,0,1.7,0.3,2.3,1c0.6,0.6,0.9,1.4,0.9,2.4
				c0,1-0.3,1.8-0.9,2.4c-0.6,0.6-1.4,1-2.3,1c-1.1,0-1.9-0.5-2.1-1.1v0.9H43.4z M48.2,13.3c0.4-0.4,0.6-0.9,0.6-1.4
				c0-0.6-0.2-1-0.6-1.4c-0.4-0.4-0.8-0.6-1.4-0.6c-0.6,0-1,0.2-1.4,0.6c-0.4,0.4-0.6,0.9-0.6,1.4c0,0.6,0.2,1,0.6,1.4
				c0.4,0.4,0.9,0.6,1.4,0.6C47.4,13.8,47.8,13.6,48.2,13.3z"/>
			<path class="st7" d="M51.3,15.1v-9h1.5v9H51.3z"/>
			<path class="st7" d="M54,11.8c0-1,0.3-1.8,1-2.4c0.7-0.7,1.5-1,2.5-1c1,0,1.8,0.3,2.5,1c0.7,0.7,1,1.5,1,2.4c0,1-0.3,1.8-1,2.4
				c-0.7,0.7-1.5,1-2.5,1c-1,0-1.8-0.3-2.5-1C54.3,13.6,54,12.8,54,11.8z M58.9,13.3c0.4-0.4,0.6-0.9,0.6-1.5c0-0.6-0.2-1.1-0.6-1.4
				c-0.4-0.4-0.9-0.6-1.4-0.6c-0.6,0-1.1,0.2-1.4,0.6c-0.4,0.4-0.6,0.9-0.6,1.4c0,0.6,0.2,1.1,0.6,1.5c0.4,0.4,0.9,0.6,1.4,0.6
				C58.1,13.9,58.5,13.7,58.9,13.3z"/>
			<path class="st7" d="M68,9.5l-1,1c-0.5-0.5-1-0.7-1.6-0.7c-0.6,0-1,0.2-1.4,0.6c-0.4,0.4-0.6,0.9-0.6,1.5s0.2,1.1,0.6,1.5
				c0.4,0.4,0.9,0.6,1.4,0.6c0.6,0,1.2-0.2,1.6-0.7l1,1c-0.7,0.7-1.6,1.1-2.6,1.1c-1,0-1.8-0.3-2.5-1c-0.7-0.7-1-1.5-1-2.5
				s0.3-1.8,1-2.4c0.7-0.7,1.5-1,2.5-1C66.4,8.4,67.3,8.8,68,9.5z"/>
			<path class="st7" d="M68.9,15.1v-9h1.5v5.2l2.4-2.8h1.8l-2.5,2.9l2.8,3.6h-1.8l-2-2.6l-0.6,0.7v1.9H68.9z"/>
			<path class="st7" d="M81.1,12.4c0.5,0.9,1.2,1.4,2.3,1.4c1.1,0,1.5-0.6,1.5-1.2c0-0.4-0.1-0.7-0.5-0.9c-0.4-0.3-0.6-0.4-1.3-0.6
				c-0.8-0.3-1.3-0.5-1.8-1c-0.5-0.4-0.8-1-0.8-1.8c0-0.7,0.3-1.3,0.8-1.8c0.5-0.5,1.2-0.7,2-0.7c1.2,0,2.2,0.5,2.8,1.5l-1.1,0.8
				c-0.3-0.5-0.9-0.8-1.6-0.8c-0.7,0-1.2,0.4-1.2,1c0,0.4,0.2,0.6,0.4,0.8c0.1,0.1,0.5,0.3,0.7,0.3l0.5,0.2L84,9.9
				c0.9,0.3,1.5,0.7,1.8,1.1c0.4,0.4,0.6,0.9,0.6,1.6c0,1.6-1.1,2.7-3.1,2.7c-1.7,0-2.9-0.8-3.5-2L81.1,12.4z"/>
			<path class="st7" d="M88,15.1V10h-0.8V8.6H88V6.1h1.5v2.5H91V10h-1.4v5.1H88z"/>
			<path class="st7" d="M91.8,8.6h1.6v3.8c0,1,0.6,1.5,1.4,1.5c0.9,0,1.4-0.5,1.4-1.5V8.6h1.6v3.9c0,0.9-0.3,1.6-0.9,2.1
				c-0.6,0.5-1.3,0.7-2.1,0.7c-0.9,0-1.6-0.2-2.1-0.7c-0.6-0.5-0.8-1.1-0.8-2V8.6z"/>
			<path class="st7" d="M104.1,9.5V6.1h1.5v9h-1.5v-0.9c-0.2,0.6-1,1.1-2.1,1.1c-0.9,0-1.7-0.3-2.3-1c-0.6-0.7-0.9-1.5-0.9-2.4
				c0-1,0.3-1.8,0.9-2.4c0.6-0.7,1.4-1,2.3-1C103.1,8.5,103.9,8.9,104.1,9.5z M103.6,13.3c0.4-0.4,0.6-0.9,0.6-1.4
				c0-0.6-0.2-1-0.6-1.4c-0.4-0.4-0.9-0.6-1.4-0.6c-0.6,0-1,0.2-1.4,0.6c-0.4,0.4-0.5,0.9-0.5,1.4c0,0.6,0.2,1,0.5,1.4
				c0.4,0.4,0.8,0.6,1.4,0.6C102.8,13.8,103.3,13.6,103.6,13.3z"/>
			<path class="st7" d="M106.8,6.9c0-0.5,0.4-0.9,0.9-0.9c0.5,0,0.9,0.4,0.9,0.9c0,0.5-0.4,0.9-0.9,0.9
				C107.3,7.8,106.8,7.4,106.8,6.9z M107,15.1V8.6h1.5v6.5H107z"/>
			<path class="st7" d="M109.6,11.8c0-1,0.3-1.8,1-2.4c0.7-0.7,1.5-1,2.5-1c1,0,1.8,0.3,2.5,1c0.7,0.7,1,1.5,1,2.4
				c0,1-0.3,1.8-1,2.4c-0.7,0.7-1.5,1-2.5,1c-1,0-1.8-0.3-2.5-1C110,13.6,109.6,12.8,109.6,11.8z M114.6,13.3
				c0.4-0.4,0.6-0.9,0.6-1.5c0-0.6-0.2-1.1-0.6-1.4c-0.4-0.4-0.9-0.6-1.4-0.6c-0.6,0-1.1,0.2-1.4,0.6c-0.4,0.4-0.6,0.9-0.6,1.4
				c0,0.6,0.2,1.1,0.6,1.5c0.4,0.4,0.9,0.6,1.4,0.6C113.7,13.9,114.2,13.7,114.6,13.3z"/>
		</g>
	</g>
</g>
</svg>
