<?xml version="1.0" encoding="utf-8"?>
<!-- Generator: Adobe Illustrator 23.1.0, SVG Export Plug-In . SVG Version: 6.00 Build 0)  -->
<svg version="1.1" id="Layer_1" xmlns="http://www.w3.org/2000/svg" xmlns:xlink="http://www.w3.org/1999/xlink" x="0px" y="0px"
	 viewBox="0 0 64.6 21.1" style="enable-background:new 0 0 64.6 21.1;" xml:space="preserve">
<style type="text/css">
	.st0{fill:none;stroke:#006FF9;stroke-width:2;stroke-miterlimit:10;}
	.st1{fill:#FFFFFF;}
	.st2{fill:#006FF9;}
	.st3{fill:#CECEC2;}
	.st4{fill:#313129;}
	.st5{fill:none;}
	.st6{fill:#0036D4;}
	.st7{fill:#282828;}
	.st8{fill:none;stroke:#FFFFFF;stroke-width:0.5;stroke-miterlimit:10;}
	.st9{fill:none;stroke:#006FF9;stroke-width:0.25;stroke-miterlimit:10;}
	.st10{fill:none;stroke:#006FF9;stroke-width:0.5;stroke-miterlimit:10;}
	.st11{fill:none;stroke:#006FF9;stroke-width:0.5;stroke-linecap:round;stroke-miterlimit:10;}
	.st12{fill:none;stroke:#006FF9;stroke-linecap:round;stroke-miterlimit:10;}
	.st13{fill:#14182C;}
	.st14{opacity:0.14;}
	.st15{stroke:#C1C1C1;stroke-width:5.362;stroke-miterlimit:10;}
	.st16{fill:none;stroke:#C1C1C1;stroke-width:7;stroke-miterlimit:10;}
	.st17{fill:#C1C1C1;}
	.st18{opacity:0.5;fill:none;stroke:#FFFFFF;stroke-width:0.7051;stroke-miterlimit:10;}
	.st19{fill:none;stroke:#C1C1C1;stroke-width:5.362;stroke-miterlimit:10;}
	.st20{opacity:0.5;fill:none;stroke:#FFFFFF;stroke-width:0.583;stroke-linecap:round;stroke-linejoin:round;stroke-miterlimit:10;}
</style>
<g>
	<g>
		<rect class="st7" width="22.3" height="21.1"/>
		<g>
			<g>
				<polygon class="st1" points="16.4,2.3 12.8,10.8 12.8,2.3 9.4,2.3 2.3,18.8 5.8,18.8 9.5,10.2 9.5,18.8 12.9,18.8 19.9,2.3 				
					"/>
				<polygon class="st1" points="15.4,16.4 16.4,18.8 19.9,18.8 17.2,12.3 				"/>
				<polygon class="st1" points="2.3,7 2.3,15.2 5.8,7 				"/>
				<rect x="2.3" y="2.3" class="st1" width="3.5" height="3.5"/>
			</g>
		</g>
	</g>
	<g>
		<g>
			<path class="st7" d="M26.7,8.7v-7H28v7H26.7z"/>
			<path class="st7" d="M29.3,8.7v-5h1.2v0.7c0.2-0.5,0.8-0.8,1.5-0.8c1.2,0,1.9,0.8,1.9,2v3.1h-1.2V5.8c0-0.7-0.4-1.1-1.1-1.1
				c-0.7,0-1.2,0.5-1.2,1.2v2.9H29.3z"/>
			<path class="st7" d="M35,8.7v-7h1.2v4.1L38,3.7h1.4l-2,2.2l2.2,2.8h-1.4l-1.6-2l-0.5,0.6v1.5H35z"/>
			<path class="st7" d="M40.1,8.7v-7h1.2v2.7c0.2-0.5,0.8-0.8,1.6-0.8c0.7,0,1.3,0.3,1.8,0.8c0.5,0.5,0.7,1.1,0.7,1.9
				c0,0.7-0.2,1.4-0.7,1.9c-0.5,0.5-1.1,0.7-1.8,0.7c-0.8,0-1.4-0.3-1.6-0.8v0.7H40.1z M43.8,7.3c0.3-0.3,0.4-0.7,0.4-1.1
				c0-0.4-0.1-0.8-0.4-1.1c-0.3-0.3-0.6-0.4-1.1-0.4S42,4.8,41.7,5.1c-0.3,0.3-0.4,0.7-0.4,1.1c0,0.4,0.2,0.8,0.4,1.1
				c0.3,0.3,0.7,0.4,1.1,0.4S43.6,7.6,43.8,7.3z"/>
			<path class="st7" d="M46.3,8.7v-7h1.2v7H46.3z"/>
			<path class="st7" d="M48.3,6.2c0-0.8,0.3-1.4,0.8-1.9c0.5-0.5,1.2-0.8,1.9-0.8c0.8,0,1.4,0.3,1.9,0.8c0.5,0.5,0.8,1.1,0.8,1.9
				c0,0.7-0.3,1.4-0.8,1.9c-0.5,0.5-1.2,0.8-1.9,0.8c-0.8,0-1.4-0.3-1.9-0.8C48.6,7.6,48.3,7,48.3,6.2z M52.2,7.4
				c0.3-0.3,0.5-0.7,0.5-1.1c0-0.5-0.1-0.8-0.5-1.1c-0.3-0.3-0.7-0.5-1.1-0.5c-0.4,0-0.8,0.1-1.1,0.5c-0.3,0.3-0.4,0.7-0.4,1.1
				c0,0.4,0.1,0.8,0.4,1.1c0.3,0.3,0.7,0.5,1.1,0.5C51.5,7.8,51.9,7.7,52.2,7.4z"/>
			<path class="st7" d="M59.2,4.4l-0.7,0.8c-0.3-0.4-0.8-0.5-1.3-0.5c-0.4,0-0.8,0.2-1.1,0.5c-0.3,0.3-0.4,0.7-0.4,1.1
				c0,0.5,0.1,0.8,0.4,1.1c0.3,0.3,0.7,0.4,1.1,0.4c0.5,0,0.9-0.2,1.3-0.5L59.2,8c-0.5,0.6-1.2,0.9-2,0.9c-0.8,0-1.4-0.3-1.9-0.8
				c-0.5-0.5-0.8-1.1-0.8-1.9c0-0.8,0.3-1.4,0.8-1.9c0.5-0.5,1.2-0.8,1.9-0.8C58,3.5,58.7,3.8,59.2,4.4z"/>
			<path class="st7" d="M59.9,8.7v-7h1.2v4.1L63,3.7h1.4l-2,2.2l2.2,2.8h-1.4l-1.6-2l-0.5,0.6v1.5H59.9z"/>
			<path class="st7" d="M27.1,17.1c0.4,0.7,0.9,1.1,1.7,1.1c0.9,0,1.2-0.5,1.2-0.9c0-0.3-0.1-0.5-0.4-0.7c-0.3-0.2-0.5-0.3-1-0.5
				c-0.6-0.2-1-0.4-1.4-0.7c-0.4-0.3-0.6-0.8-0.6-1.4c0-0.6,0.2-1,0.6-1.4c0.4-0.3,0.9-0.5,1.5-0.5c0.9,0,1.7,0.4,2.1,1.1L30,13.8
				c-0.3-0.4-0.7-0.6-1.2-0.6c-0.5,0-0.9,0.3-0.9,0.7c0,0.3,0.1,0.4,0.3,0.6c0.1,0.1,0.4,0.2,0.5,0.3l0.4,0.1l0.4,0.2
				c0.7,0.3,1.1,0.6,1.4,0.9c0.3,0.3,0.4,0.7,0.4,1.2c0,1.2-0.8,2.1-2.4,2.1c-1.3,0-2.2-0.6-2.7-1.6L27.1,17.1z"/>
			<path class="st7" d="M32.5,19.1v-3.9h-0.7v-1.1h0.7v-1.9h1.2v1.9h1.1v1.1h-1.1v3.9H32.5z"/>
			<path class="st7" d="M35.4,14.1h1.2V17c0,0.8,0.4,1.1,1.1,1.1s1.1-0.4,1.1-1.1v-2.9H40v3c0,0.7-0.2,1.2-0.7,1.6
				c-0.4,0.4-1,0.5-1.7,0.5c-0.7,0-1.2-0.2-1.6-0.5c-0.4-0.4-0.6-0.9-0.6-1.6V14.1z"/>
			<path class="st7" d="M45,14.8v-2.7h1.2v7H45v-0.7c-0.2,0.5-0.8,0.8-1.6,0.8c-0.7,0-1.3-0.3-1.8-0.8c-0.5-0.5-0.7-1.1-0.7-1.9
				c0-0.7,0.2-1.4,0.7-1.9c0.5-0.5,1.1-0.8,1.8-0.8C44.2,14,44.8,14.3,45,14.8z M44.6,17.7c0.3-0.3,0.4-0.7,0.4-1.1
				c0-0.4-0.1-0.8-0.4-1.1c-0.3-0.3-0.7-0.4-1.1-0.4s-0.8,0.2-1.1,0.4c-0.3,0.3-0.4,0.7-0.4,1.1c0,0.4,0.1,0.8,0.4,1.1
				c0.3,0.3,0.6,0.4,1.1,0.4S44.3,18,44.6,17.7z"/>
			<path class="st7" d="M47.1,12.8c0-0.4,0.3-0.7,0.7-0.7c0.4,0,0.7,0.3,0.7,0.7c0,0.4-0.3,0.7-0.7,0.7
				C47.4,13.5,47.1,13.2,47.1,12.8z M47.2,19.1v-5h1.2v5H47.2z"/>
			<path class="st7" d="M49.2,16.6c0-0.7,0.3-1.4,0.8-1.9c0.5-0.5,1.2-0.8,1.9-0.8s1.4,0.3,1.9,0.8c0.5,0.5,0.8,1.1,0.8,1.9
				c0,0.8-0.3,1.4-0.8,1.9c-0.5,0.5-1.2,0.8-1.9,0.8S50.6,19,50,18.5C49.5,18,49.2,17.4,49.2,16.6z M53.1,17.8
				c0.3-0.3,0.5-0.7,0.5-1.1c0-0.4-0.2-0.8-0.5-1.1C52.8,15.2,52.4,15,52,15c-0.5,0-0.8,0.2-1.1,0.5c-0.3,0.3-0.4,0.7-0.4,1.1
				c0,0.5,0.2,0.8,0.4,1.1c0.3,0.3,0.7,0.4,1.1,0.4C52.4,18.2,52.8,18.1,53.1,17.8z"/>
		</g>
	</g>
</g>
</svg>
