<svg xmlns="http://www.w3.org/2000/svg" width="138.47" height="48.372" viewBox="0 0 138.47 48.372"><defs><style>.a{fill:#282828;}.b{fill:#fff;}</style></defs><g transform="translate(-53.221 -54.148)"><g transform="translate(44 45)"><g transform="translate(0 0)"><rect class="a" width="51.052" height="48.372" transform="translate(9.221 9.148)"/><path class="b" d="M38.389,5.99,30.013,25.542V5.99H22.192L6.02,43.742h8.086l8.4-19.576V43.742h7.8L46.475,5.99Z" transform="translate(8.511 8.469)"/><path class="b" d="M18.46,24.928,20.8,30.311h8.086l-6.4-14.821Z" transform="translate(26.099 21.9)"/><path class="b" d="M6.02,10.46V29.336L14.106,10.46Z" transform="translate(8.511 14.788)"/><rect class="b" width="8.086" height="8.086" transform="translate(14.531 14.459)"/></g></g><g transform="translate(114.356 48)"><path class="a" d="M7.282,0A4.546,4.546,0,0,0,10.6-1.276a4.315,4.315,0,0,0,1.342-3.256,3.638,3.638,0,0,0-3.08-3.806,3.138,3.138,0,0,0,1.958-3.08,3.642,3.642,0,0,0-1.188-2.794A4.088,4.088,0,0,0,6.71-15.334H2.024V0ZM3.74-13.75H6.622a2.371,2.371,0,0,1,2.486,2.4A2.407,2.407,0,0,1,6.6-8.932H3.74Zm0,6.358H7.15a3.024,3.024,0,0,1,2.2.814,2.666,2.666,0,0,1,.88,2.046A2.921,2.921,0,0,1,7.172-1.584H3.74ZM25.058,0V-1.584H18.744v-13.75H17.028V0Zm5.3-1.958A7.835,7.835,0,0,0,36.036.308,7.749,7.749,0,0,0,41.69-1.958a7.631,7.631,0,0,0,2.332-5.7,7.582,7.582,0,0,0-2.332-5.676,7.768,7.768,0,0,0-5.654-2.288,7.855,7.855,0,0,0-5.676,2.288,7.646,7.646,0,0,0-2.31,5.676A7.7,7.7,0,0,0,30.36-1.958ZM31.526-12.21a6.12,6.12,0,0,1,4.51-1.826,6.036,6.036,0,0,1,4.488,1.826,6.237,6.237,0,0,1,1.782,4.554A6.288,6.288,0,0,1,40.524-3.08a6.018,6.018,0,0,1-4.488,1.8,6.1,6.1,0,0,1-4.51-1.8,6.288,6.288,0,0,1-1.782-4.576A6.237,6.237,0,0,1,31.526-12.21Zm24.53-3.41a7.855,7.855,0,0,0-5.676,2.288,7.646,7.646,0,0,0-2.31,5.676,7.7,7.7,0,0,0,2.31,5.7A7.835,7.835,0,0,0,56.056.308a7.489,7.489,0,0,0,5.918-2.684L60.808-3.432a5.874,5.874,0,0,1-4.752,2.156,6.018,6.018,0,0,1-4.488-1.8,6.288,6.288,0,0,1-1.782-4.576,6.237,6.237,0,0,1,1.782-4.554,6.036,6.036,0,0,1,4.488-1.826,5.863,5.863,0,0,1,4.686,2.068l1.166-1.056A7.48,7.48,0,0,0,56.056-15.62ZM68.4,0V-4.972l2.222-2.42L75.988,0h2.068L71.764-8.646l6.116-6.688H75.768L68.4-7.194v-8.14H66.682V0Z" transform="translate(-0.722 49.492)"/><path class="a" d="M5.522,0V-15.334H1.342V0Zm7.92,0V-8.558L20.2,0h3.41V-15.334h-4v8.228l-6.424-8.228H9.438V0ZM31.614,0V-3.938L33.132-5.7,37.026,0h4.928l-5.94-8.536,5.742-6.8H36.85L31.614-9.108v-6.226h-4.18V0Z" transform="translate(-0.052 27)"/></g></g></svg>